$MeshFormat
4.1 0 8
$EndMeshFormat
$PhysicalNames
4
1 18 "LeftEdge"
1 19 "RightEdge"
1 20 "LoadEdge"
2 21 "Domain"
$EndPhysicalNames
$Entities
16 16 1 0
1 0 0 0 0 
2 15 0 0 0 
3 222.5 0 0 0 
4 222.5 50 0 0 
5 227.5 0 0 0 
6 435 0 0 0 
7 450 0 0 0 
8 450 50 0 0 
9 450 75 0 0 
10 450 100 0 0 
11 228.75 100 0 0 
12 221.25 100 0 0 
13 0 100 0 0 
14 0 75 0 0 
15 0 50 0 0 
16 227.5 50 0 0 
1 0 0 0 15 0 0 1 18 2 1 -2 
2 15 0 0 222.5 0 0 0 2 2 -3 
3 222.5 0 0 222.5 50 0 0 2 3 -4 
4 227.5 0 0 227.5 50 0 0 2 16 -5 
5 227.5 0 0 435 0 0 0 2 5 -6 
6 435 0 0 450 0 0 1 19 2 6 -7 
7 450 0 0 450 50 0 0 2 7 -8 
8 450 50 0 450 75 0 0 2 8 -9 
9 450 75 0 450 100 0 0 2 9 -10 
10 228.75 100 0 450 100 0 0 2 10 -11 
11 221.25 100 0 228.75 100 0 1 20 2 11 -12 
12 0 100 0 221.25 100 0 0 2 12 -13 
13 0 75 0 0 100 0 0 2 13 -14 
14 0 50 0 0 75 0 0 2 14 -15 
15 0 0 0 0 50 0 0 2 15 -1 
16 222.5 50 0 227.5 50 0 0 2 4 -16 
1 0 0 0 450 100 0 1 21 16 15 1 2 3 16 4 5 6 7 8 9 10 11 12 13 14 
$EndEntities
$Nodes
33 1175 1 1175
0 1 0 1
1
0 0 0
0 2 0 1
2
15 0 0
0 3 0 1
3
222.5 0 0
0 4 0 1
4
222.5 50 0
0 5 0 1
5
227.5 0 0
0 6 0 1
6
435 0 0
0 7 0 1
7
450 0 0
0 8 0 1
8
450 50 0
0 9 0 1
9
450 75 0
0 10 0 1
10
450 100 0
0 11 0 1
11
228.75 100 0
0 12 0 1
12
221.25 100 0
0 13 0 1
13
0 100 0
0 14 0 1
14
0 75 0
0 15 0 1
15
0 50 0
0 16 0 1
16
227.5 50 0
1 1 0 1
17
7.499999999984786 0 0
1 2 0 17
18
19
20
21
22
23
24
25
26
27
28
29
30
31
32
33
34
23.1462903388739 0 0
31.61239623758588 0 0
40.41087637953737 0 0
49.55477626648187 0 0
59.05766005862468 0 0
68.93361912964215 0 0
79.19730039948708 0 0
89.86392602444441 0 0
100.9493155415525 0 0
112.4699077391758 0 0
124.4427923735508 0 0
136.8857185020424 0 0
149.8171502683564 0 0
163.2562558100027 0 0
177.2229695439156 0 0
191.7380087684844 0 0
206.8228948380383 0 0
1 3 0 12
35
36
37
38
39
40
41
42
43
44
45
46
222.5 12.41086383952573 0
222.5 21.35159279769118 0
222.5 27.79279916655826 0
222.5 35.77685443505766 0
222.5 38.18522754431039 0
222.5 39.92022708337419 0
222.5 41.36080854844399 0
222.5 42.80067379036999 0
222.5 44.24053903229599 0
222.5 45.68040427422199 0
222.5 47.12026951614799 0
222.5 48.560134758074 0
1 4 0 12
47
48
49
50
51
52
53
54
55
56
57
58
227.5 48.56013475808473 0
227.5 47.12026951616946 0
227.5 45.68040427425419 0
227.5 44.24053903233892 0
227.5 42.80067379042366 0
227.5 41.36080854850839 0
227.5 39.92022708345068 0
227.5 38.18522754442702 0
227.5 35.77685443522478 0
227.5 32.43376322307505 0
227.5 21.35159279793961 0
227.5 12.41086383970266 0
1 5 0 17
59
60
61
62
63
64
65
66
67
68
69
70
71
72
73
74
75
243.1771051619069 0 0
258.2619912314107 0 0
272.7770304559331 0 0
286.743744189803 0 0
300.18284973141 0 0
313.1142814976881 0 0
325.5572076261466 0 0
337.530092260534 0 0
349.0506844582059 0 0
360.136073975359 0 0
370.8026996003584 0 0
381.0663808702425 0 0
390.9423399412964 0 0
400.445223733473 0 0
409.589123620447 0 0
418.3876037623982 0 0
426.8537096611181 0 0
1 6 0 1
76
442.5 0 0
1 7 0 4
77
78
79
80
450 7.434918976255553 0
450 15.97539649734425 0
450 25.7858289118456 0
450 37.05505705010633 0
1 8 0 1
81
450 62.49999999984318 0
1 9 0 1
82
450 87.5 0
1 10 0 23
83
84
85
86
87
88
89
90
91
92
93
94
95
96
97
98
99
100
101
102
103
104
105
434.3662050157718 100 0
419.2847592357541 100 0
404.7361471425103 100 0
390.7015504325896 100 0
377.162804796453 100 0
364.1023891100842 100 0
351.503408706159 100 0
339.3495562670812 100 0
327.6251049622148 100 0
316.3148868902966 100 0
305.4042665910443 100 0
294.8791256865028 100 0
284.7258441306815 100 0
274.9312833443494 100 0
265.4827711701619 100 0
256.3680818476889 100 0
248.2832990722199 100 0
242.4705749665724 100 0
238.3327244261696 100 0
235.3870506684017 100 0
233.2901367325053 100 0
231.7343730297674 100 0
230.2421865148837 100 0
1 11 0 4
106
107
108
109
227.25 100 0
225.75 100 0
224.25 100 0
222.75 100 0
1 12 0 23
110
111
112
113
114
115
116
117
118
119
120
121
122
123
124
125
126
127
128
129
130
131
132
219.7578134851316 100 0
218.2656269702632 100 0
216.7098632675478 100 0
214.6129493316893 100 0
211.6672755739721 100 0
207.5294250336372 100 0
201.7167009280058 100 0
193.6319181525444 100 0
184.5172288301131 100 0
175.0687166559104 100 0
165.2741558695618 100 0
155.1208743137223 100 0
144.595733409161 100 0
133.6851131098871 100 0
122.3748950379818 100 0
110.6504437331679 100 0
98.49659129406733 100 0
85.89761089011682 100 0
72.83719520372071 100 0
59.29844956755474 100 0
45.26385285760202 100 0
30.7152407643232 100 0
15.63379498426832 100 0
1 13 0 1
133
0 87.5 0
1 14 0 1
134
0 62.49999999997224 0
1 15 0 4
135
136
137
138
0 37.05505705028101 0
0 25.78582891206498 0
0 15.97539649752331 0
0 7.434918976328674 0
1 16 0 3
139
140
141
223.75 50 0
225 50 0
226.25 50 0
2 1 0 1034
142
143
144
145
146
147
148
149
150
151
152
153
154
155
156
157
158
159
160
161
162
163
164
165
166
167
168
169
170
171
172
173
174
175
176
177
178
179
180
181
182
183
184
185
186
187
188
189
190
191
192
193
194
195
196
197
198
199
200
201
202
203
204
205
206
207
208
209
210
211
212
213
214
215
216
217
218
219
220
221
222
223
224
225
226
227
228
229
230
231
232
233
234
235
236
237
238
239
240
241
242
243
244
245
246
247
248
249
250
251
252
253
254
255
256
257
258
259
260
261
262
263
264
265
266
267
268
269
270
271
272
273
274
275
276
277
278
279
280
281
282
283
284
285
286
287
288
289
290
291
292
293
294
295
296
297
298
299
300
301
302
303
304
305
306
307
308
309
310
311
312
313
314
315
316
317
318
319
320
321
322
323
324
325
326
327
328
329
330
331
332
333
334
335
336
337
338
339
340
341
342
343
344
345
346
347
348
349
350
351
352
353
354
355
356
357
358
359
360
361
362
363
364
365
366
367
368
369
370
371
372
373
374
375
376
377
378
379
380
381
382
383
384
385
386
387
388
389
390
391
392
393
394
395
396
397
398
399
400
401
402
403
404
405
406
407
408
409
410
411
412
413
414
415
416
417
418
419
420
421
422
423
424
425
426
427
428
429
430
431
432
433
434
435
436
437
438
439
440
441
442
443
444
445
446
447
448
449
450
451
452
453
454
455
456
457
458
459
460
461
462
463
464
465
466
467
468
469
470
471
472
473
474
475
476
477
478
479
480
481
482
483
484
485
486
487
488
489
490
491
492
493
494
495
496
497
498
499
500
501
502
503
504
505
506
507
508
509
510
511
512
513
514
515
516
517
518
519
520
521
522
523
524
525
526
527
528
529
530
531
532
533
534
535
536
537
538
539
540
541
542
543
544
545
546
547
548
549
550
551
552
553
554
555
556
557
558
559
560
561
562
563
564
565
566
567
568
569
570
571
572
573
574
575
576
577
578
579
580
581
582
583
584
585
586
587
588
589
590
591
592
593
594
595
596
597
598
599
600
601
602
603
604
605
606
607
608
609
610
611
612
613
614
615
616
617
618
619
620
621
622
623
624
625
626
627
628
629
630
631
632
633
634
635
636
637
638
639
640
641
642
643
644
645
646
647
648
649
650
651
652
653
654
655
656
657
658
659
660
661
662
663
664
665
666
667
668
669
670
671
672
673
674
675
676
677
678
679
680
681
682
683
684
685
686
687
688
689
690
691
692
693
694
695
696
697
698
699
700
701
702
703
704
705
706
707
708
709
710
711
712
713
714
715
716
717
718
719
720
721
722
723
724
725
726
727
728
729
730
731
732
733
734
735
736
737
738
739
740
741
742
743
744
745
746
747
748
749
750
751
752
753
754
755
756
757
758
759
760
761
762
763
764
765
766
767
768
769
770
771
772
773
774
775
776
777
778
779
780
781
782
783
784
785
786
787
788
789
790
791
792
793
794
795
796
797
798
799
800
801
802
803
804
805
806
807
808
809
810
811
812
813
814
815
816
817
818
819
820
821
822
823
824
825
826
827
828
829
830
831
832
833
834
835
836
837
838
839
840
841
842
843
844
845
846
847
848
849
850
851
852
853
854
855
856
857
858
859
860
861
862
863
864
865
866
867
868
869
870
871
872
873
874
875
876
877
878
879
880
881
882
883
884
885
886
887
888
889
890
891
892
893
894
895
896
897
898
899
900
901
902
903
904
905
906
907
908
909
910
911
912
913
914
915
916
917
918
919
920
921
922
923
924
925
926
927
928
929
930
931
932
933
934
935
936
937
938
939
940
941
942
943
944
945
946
947
948
949
950
951
952
953
954
955
956
957
958
959
960
961
962
963
964
965
966
967
968
969
970
971
972
973
974
975
976
977
978
979
980
981
982
983
984
985
986
987
988
989
990
991
992
993
994
995
996
997
998
999
1000
1001
1002
1003
1004
1005
1006
1007
1008
1009
1010
1011
1012
1013
1014
1015
1016
1017
1018
1019
1020
1021
1022
1023
1024
1025
1026
1027
1028
1029
1030
1031
1032
1033
1034
1035
1036
1037
1038
1039
1040
1041
1042
1043
1044
1045
1046
1047
1048
1049
1050
1051
1052
1053
1054
1055
1056
1057
1058
1059
1060
1061
1062
1063
1064
1065
1066
1067
1068
1069
1070
1071
1072
1073
1074
1075
1076
1077
1078
1079
1080
1081
1082
1083
1084
1085
1086
1087
1088
1089
1090
1091
1092
1093
1094
1095
1096
1097
1098
1099
1100
1101
1102
1103
1104
1105
1106
1107
1108
1109
1110
1111
1112
1113
1114
1115
1116
1117
1118
1119
1120
1121
1122
1123
1124
1125
1126
1127
1128
1129
1130
1131
1132
1133
1134
1135
1136
1137
1138
1139
1140
1141
1142
1143
1144
1145
1146
1147
1148
1149
1150
1151
1152
1153
1154
1155
1156
1157
1158
1159
1160
1161
1162
1163
1164
1165
1166
1167
1168
1169
1170
1171
1172
1173
1174
1175
225.5670127713074 51.03449081562534 0
218.9800853874242 98.98171430778024 0
230.9925081391023 98.76327386362121 0
209.5983503038046 96.93274400478128 0
240.4412989530664 97.00847592667103 0
224.9976176224535 98.70408208032245 0
228.7086594051407 49.23565165747941 0
228.7469598775249 43.52060641138129 0
221.1123035639416 49.41446975567426 0
221.2530401224658 42.08074116940699 0
269.7449210118575 92.49062727480027 0
179.8460641519937 92.29711624774127 0
228.7080201827555 39.17617576463326 0
54.30621816255326 8.074294182481331 0
395.5872780938178 8.412458657138119 0
84.4177630374991 8.621375649221605 0
365.0194517149076 8.490685424817766 0
300.0340796631191 91.36805289291165 0
149.9146800185638 91.16194966420349 0
219.9544224368266 37.13263049044171 0
116.6428609278456 90.58965156505121 0
334.0597770875357 89.96790239401908 0
66.05106193926332 88.6584987419337 0
383.9321776145214 88.48222528767495 0
118.8965690837391 9.839112302998634 0
331.8658914773391 9.684480768087806 0
279.0921460088695 11.18826523202316 0
170.7050819686479 11.6913432713364 0
198.0783056208648 94.3134099977822 0
252.3256904599543 93.98220299584206 0
439.0398226280687 44.74041666332324 0
9.655934751309362 43.36500609781618 0
235.0860498379751 25.94577836970089 0
216.8318981287467 24.28041456853006 0
144.10472453812 12.15624436251539 0
306.7657945818405 12.00953911402945 0
92.17297771524503 89.26365195030883 0
356.4178116417922 89.4026756794368 0
234.3385937004539 98.41834418655365 0
215.8647226308861 98.46713804088735 0
221.2530401224658 46.40033689518497 0
413.9666288673599 6.966854289412634 0
35.87059518978611 6.921956254394189 0
222.0358281423669 98.7302577843696 0
227.9982133600403 98.70111070426486 0
222.8554168603333 51.05225354519133 0
228.7226477181236 46.38204531034638 0
411.6106586131283 86.68740287875779 0
37.80150354416114 87.83640414399591 0
430.6753861820348 7.543888166739524 0
19.11914392936355 6.820614038319381 0
221.4347850090891 50.8268287802074 0
221.8609113838572 52.14962530911502 0
220.4221911886566 51.89282291394746 0
223.5280397265312 52.36317559791119 0
439.7614886772377 67.02705583475718 0
10.53999275926216 68.62184938251511 0
7.903081685909958 20.78316894918397 0
442.2510664807543 20.57261898010614 0
253.0695518778575 13.06913705165685 0
199.2804518032613 12.81714362741594 0
230.4036453773216 34.3889447748436 0
234.8630769757558 17.70292347393421 0
241.4036923325544 22.90106797452164 0
240.9760833900126 30.49451429784899 0
247.5546771020736 27.37089260448396 0
246.9037684676308 34.45015785441361 0
253.7582017530661 31.6349720087902 0
252.1690661607849 39.89302162633988 0
260.4807667828423 36.18658484640726 0
259.6181603440584 44.40724276425247 0
267.6369792762171 40.66977246484474 0
252.3429992589267 48.03900145015784 0
258.700615861378 52.31993911129008 0
250.8490287212727 55.31593030658014 0
257.440055800807 59.68575937490186 0
250.8365890626229 62.13349204335876 0
245.5634679601683 59.29018640149548 0
228.7156759419448 50.69513484734684 0
245.369834603408 64.48472042178429 0
229.9739932351745 49.92806645619445 0
229.9873560933883 51.42596770736638 0
249.8450780122565 67.88003787089733 0
244.5933328312581 69.52249665741027 0
240.277394824442 66.24673063972317 0
240.1069415529667 70.81217764898889 0
236.8429981276721 68.47138711166942 0
236.4419249140125 71.95501595305728 0
233.9348422534226 69.82431928927009 0
233.3507913321792 72.71851758304578 0
231.0089162257074 71.04179393332745 0
235.2249964870536 74.99314959954621 0
232.4932132634346 75.91552054302554 0
234.0387908886963 78.16159176218869 0
231.8138295100911 78.72876949124024 0
230.9077699444867 77.09246196199535 0
234.152293519791 66.48819643304165 0
234.1230543833003 80.98506854315883 0
231.5065545853827 81.44852967399936 0
236.8859356075632 80.08026798868221 0
235.6617562773307 83.24829504781401 0
239.4014150946279 82.26114764835545 0
266.5927734524348 57.56815405748033 0
248.4237399671648 73.08919985240257 0
254.1800404020045 71.68538726156618 0
228.6837311308399 52.15084727942808 0
229.9721499362948 52.91812868638866 0
228.6644217323237 53.6507289296153 0
231.2842829861361 52.19188553977988 0
238.4088147939118 85.55581788562486 0
234.8545726206666 86.38686410928483 0
242.0102710534842 84.67324065467152 0
252.072331058006 77.88586849942381 0
258.8577703985378 75.8070289818949 0
240.2599270177837 37.85267644192797 0
237.3883064097443 88.61290029837321 0
234.0817352437999 89.09236316453135 0
232.4800455965755 87.29041386580073 0
232.3424872644562 89.93637376568108 0
230.8881648673255 88.22866034787275 0
233.0706478378066 91.68288023273874 0
231.2053749713608 92.02447814154019 0
230.2540630794338 90.58369981210596 0
231.1621533713859 73.9652840854549 0
239.9246449097386 78.80442380539566 0
261.5038934154847 27.5669605472031 0
256.9324601080809 82.0278537330405 0
233.0586419512682 93.7004067709024 0
230.8424763994787 93.73952695828379 0
234.8323246086081 93.49197490859756 0
264.094591465202 80.54311020985145 0
265.8729047379966 72.01090043915177 0
272.012161474228 77.67892563099886 0
273.9185730220257 69.58585869529605 0
280.0914734981529 75.45304229398465 0
281.8283991311681 66.51894339056294 0
288.9538111362548 72.86141982221167 0
290.7224456927007 63.18200097913936 0
298.4117477088173 69.91498401690848 0
300.3326158388942 59.57312967838729 0
308.312168190663 66.66257526309548 0
310.3954839706719 56.09168874795417 0
302.093890232698 48.92474067028201 0
312.3997377645626 45.31454338145386 0
320.8281721792102 52.51050314838174 0
322.9763503460778 41.4837264675831 0
331.5781274854276 48.81326509291422 0
333.7872953658733 37.58517645645561 0
342.5673023866733 45.05240676373752 0
340.1860600137353 56.21618158247324 0
351.2698952950812 52.49365888712009 0
353.5776496086049 41.19940713332677 0
362.3015562814526 48.71666744953348 0
364.6501006759573 37.3822517921123 0
373.2290381530304 44.88521412915794 0
375.6473873382452 33.63492053224751 0
384.2810857434445 41.10445931577796 0
382.7098110573291 52.82693038814693 0
393.2034626567357 48.56404113662833 0
395.194386433297 37.2574245497666 0
403.8429264939267 44.61976520453881 0
405.6497501555264 33.43626048099014 0
402.0812628546302 56.16548006847583 0
360.1698111587381 59.69655359409461 0
303.9101432462533 38.0932578394787 0
293.5291956423968 41.820106287587 0
413.1410456599868 52.10289762949507 0
355.79607294422 29.88869163910499 0
295.2755450393134 31.0767857090832 0
283.1091149205785 57.07552268431936 0
325.1823164562013 29.82773789554003 0
411.2392254098827 64.01121200355324 0
398.6246576297424 68.25079961573798 0
227.3967694412964 52.92262641235559 0
227.3596162972335 54.39040781047459 0
228.6459939413944 55.15153156720053 0
227.3375901269994 55.88509280522653 0
228.6263130975759 56.65045983146653 0
227.3178783834883 57.38394709107017 0
222.2673028417851 53.50374223299714 0
229.9349080349685 55.9171365536185 0
228.6071511226734 58.15029296646007 0
227.2986390663571 58.8836470801305 0
226.0092754157252 58.11713025215178 0
225.9901181135468 59.61697838257231 0
224.7007530583794 58.85045792204367 0
224.6816091130232 60.35032996790301 0
223.39224604991 59.58381288780613 0
223.3731046627113 61.08368948298247 0
222.0837423579613 60.31717372451642 0
222.064601523523 61.8170512981754 0
220.7765006470252 61.05055201796688 0
223.3539635037926 62.58356648673283 0
222.0454607481972 63.31692897664188 0
223.3348227383207 64.08344418266736 0
222.0263200482976 64.81680678794015 0
223.3156820509922 65.58332201610435 0
222.0071793739928 66.31668464429406 0
220.7491787359852 65.54384136928513 0
223.2965413809524 67.08319987996788 0
221.9880387068351 67.81656251322829 0
223.2774007149859 68.58307775099905 0
221.9688980415474 69.316440385454 0
223.2582600500097 70.08295562377359 0
221.9497573767366 70.81631825851898 0
223.2391193852783 71.58283349697867 0
221.9306167120461 72.31619613179555 0
224.6050440539073 66.34983724465398 0
227.2794773491666 60.38348866386863 0
224.5667627232127 69.34959298890192 0
220.6795360329428 68.54992514688352 0
222.1028826938832 58.81729527164665 0
224.6433254084666 63.35008154241021 0
224.8638141013242 57.3441231244618 0
223.6573121930118 53.91761299859503 0
222.5389250291624 54.94649058815207 0
221.1367397737137 54.50089136492961 0
221.4104711414236 55.94407828117421 0
220.0029565588199 55.44139895477964 0
226.1101825125988 55.11903329204768 0
251.5569902309315 83.59931975005415 0
284.7844650415264 34.4954421752182 0
397.4684780759413 26.38523525241693 0
229.8951658206255 48.43546064735971 0
231.1889863155343 49.18136971493662 0
286.3174134119074 82.24465253569878 0
407.7615239975283 23.11246221212274 0
415.7167316815474 29.32879442753792 0
224.8946472833921 53.07590319972861 0
336.0767988199951 26.68485118571242 0
203.4660586032636 94.13604002609738 0
200.873451558468 89.63759575756296 0
206.3047291719634 89.95685124419708 0
203.4988965121246 85.46683189200799 0
208.140874438149 85.35899814824293 0
205.8524497088981 81.46227566450008 0
201.0762203145212 81.35638652180661 0
203.6286584907245 77.2066138082958 0
198.6268743100796 77.03295255340464 0
201.2440119600781 72.36576534377465 0
195.791455973052 72.19613544744259 0
198.6690953680391 67.29315284010411 0
192.5818466814727 67.10329458242613 0
195.8485015474421 61.56155839610149 0
189.119021888577 61.43923359723102 0
192.7950203685253 55.27453754727475 0
185.283772832089 55.142999145774 0
181.5298998158244 61.79362033255333 0
177.1546822498378 54.97799711510882 0
202.4003330786372 62.43325933841476 0
189.3670501762891 48.65761473591579 0
197.7384837367788 49.47144712791985 0
210.2342515807739 81.6921301066379 0
212.2354946180654 84.99043975191015 0
172.9802917181398 62.51181850727822 0
168.4656452905226 54.95424160719933 0
214.1648117640038 81.74702743054664 0
215.9156275253047 84.75202831019131 0
212.7806782131873 77.94299427437441 0
217.6532386329517 81.82799120609565 0
218.697262603941 84.52030325496662 0
214.8472831111364 87.75225535356192 0
163.756582165939 63.09923557617535 0
158.7749916002427 55.19801991188511 0
153.9521423294864 63.58537799769879 0
148.7504875564522 54.81259986853659 0
143.6704594483145 63.95105502090574 0
138.1372164295274 54.88037952415937 0
195.7351274339521 88.68835789138117 0
154.3920209905925 45.48479654011246 0
193.7248959786952 42.25867867181903 0
185.5642960146468 41.27418828105151 0
201.1971818201845 42.95029919874575 0
204.6640312678553 48.23101392015261 0
190.4568927926623 72.33680196994391 0
207.2830627202891 43.80274406164535 0
209.9044546349894 48.03542280652 0
205.4828058518004 37.71782012333527 0
132.9468476206238 64.27771731723034 0
127.2736102741516 54.96655935493511 0
132.6470511234426 45.43083684856529 0
121.5784715668139 45.48214910157651 0
116.1890275981341 55.21129672633192 0
110.398778384124 45.67045771204787 0
104.9975927882571 54.92967308033082 0
99.08766312752601 45.69039447442773 0
93.30148977084819 56.46265353858047 0
87.4591889299456 45.56543785154599 0
81.72980286082012 55.89422644019994 0
76.16249504406146 46.0962603852919 0
70.83177341012171 56.37691539083947 0
64.99509253869761 46.69903721879606 0
59.56157829937646 56.76413953123235 0
53.51810587473356 47.00249268466217 0
69.87602503657706 36.39821037907245 0
47.95353115759383 56.94209152361496 0
42.13446844977354 47.13117929210981 0
47.41371785729431 37.26759083470448 0
212.2758250809312 44.46210440725527 0
103.744199256118 34.77581080247661 0
168.5761405684189 70.18162401614737 0
36.41364437467081 37.33535650439913 0
214.4704451123304 47.97670708110999 0
212.3048099528082 51.44038930332773 0
127.0751090578704 35.73581359428897 0
190.4717548891518 34.10275910951779 0
207.0218675164014 72.8375193265196 0
37.11130741008246 56.40230409389032 0
181.0427532602687 32.97863903727455 0
110.9082088708279 65.13164344105788 0
215.8630061861219 44.90693301943359 0
215.2527864545002 41.85660530349483 0
77.03972631511249 66.52843920578157 0
41.68345092692079 27.82886479198012 0
30.7742675215415 28.01216187139159 0
52.55852238087165 27.61081487288188 0
53.35167402062038 66.5869237056075 0
138.1042251301886 35.94366240774458 0
138.6284433469257 73.3850174571277 0
216.0048916419987 51.42123400676607 0
214.6808419545931 54.74116763214613 0
210.7412174643474 54.86536277844998 0
212.8884045549116 57.76394447740251 0
217.3511088225073 48.62587581196103 0
219.7785888029591 50.33068367380388 0
127.7935482521839 73.8637498755309 0
186.8367983121348 25.05650976344958 0
171.5576791392541 46.06164301833614 0
209.1003040136738 58.2649430068038 0
211.4613325758917 61.28858184791923 0
215.8022943751355 60.98566247429709 0
214.3522730858541 64.37353203165068 0
210.2983852181741 64.84666905642025 0
212.802840157148 67.69780795814589 0
219.9276911159815 48.83455239673621 0
132.2495240585498 26.58309459698023 0
133.6861634479399 82.49480998062535 0
246.1695948692732 94.21352629548815 0
216.2306748574754 66.98222548278579 0
215.7081833046319 70.3493920094953 0
220.6412547034757 71.54968089328545 0
220.6221140388186 73.04955876662029 0
221.9114760473851 73.81607400512436 0
220.6029733741653 74.54943663996201 0
221.8923353827323 75.31595187846715 0
223.2008380559501 74.5825892436265 0
223.1816973912993 76.08246711697281 0
224.4902000645174 75.34910448213208 0
224.4710593998671 76.84898235547914 0
223.1625567266494 77.58234499032011 0
224.4519187352173 78.34886022882603 0
223.143416062 79.0822228636677 0
224.4327780705682 79.84873810217326 0
221.8540540534317 78.31570762516148 0
223.1242753973505 80.5821007370149 0
224.4136374059186 81.34861597552074 0
225.7412807437856 79.11537546733251 0
223.105134732701 82.08197861036238 0
224.3944967412687 82.84849384886803 0
225.7029994144863 82.11513121402695 0
225.6838587498359 83.61500908737428 0
224.3753560766181 84.34837172221515 0
225.6647180851853 85.11488696072141 0
224.3562154119669 85.84824959556217 0
225.6455774205343 86.61476483406881 0
224.3370747473158 87.34812746890941 0
226.9732207584036 84.38152432588045 0
225.6264367558833 88.11464270741624 0
224.317934082665 88.8480053422567 0
223.0285720740973 88.08149010375007 0
223.0094314094468 89.58136797709764 0
224.2987934180142 90.34788321560367 0
222.9902907447961 91.08124585044487 0
224.2796527533635 91.84776108895075 0
222.9711500801455 92.58112372379173 0
224.2605120887133 93.34763896229808 0
225.5690147619312 92.61427632745645 0
225.779562073085 76.11561972063834 0
225.7987027377358 74.6157418472912 0
225.5498740972813 94.11415420080381 0
221.6817880715779 91.81460848528533 0
221.7200694008794 88.81485273859103 0
221.6626474069271 93.31448635863227 0
220.3732853983597 92.54797112012511 0
220.3541447337085 94.04784899347283 0
219.0647827251411 93.28133375496573 0
224.2212361983372 94.81159054838227 0
223.0668534033991 85.08173435705569 0
227.0880647463036 75.38225708579797 0
227.1072054109549 73.88237921245067 0
221.815772724133 81.31546337185677 0
219.0456420604901 94.78121162831317 0
217.7010364867297 94.10762207555911 0
226.9349394291016 87.38128007257559 0
226.9157987644504 88.88115794592301 0
226.8583767704987 93.38079156596179 0
226.8093129297886 94.91384715276361 0
220.3350040690568 95.54772686682027 0
225.8178434023869 73.11586397394407 0
227.1263460756065 72.38250133910338 0
221.7392100655289 87.31497486524377 0
220.39242606301 91.04809324677811 0
226.877517435149 91.88091369261583 0
221.7966320594833 82.81534124520374 0
227.0689240816524 76.88213495914533 0
220.5072700509154 82.04882600669812 0
220.5264107155654 80.54894813335022 0
219.2901005710245 73.78262136887109 0
219.2944707009463 75.28279927480162 0
217.7398303616302 74.8160069492188 0
228.1599901294345 92.64734101326053 0
228.4115025904803 73.14896290927804 0
228.4122552081982 71.64885037719887 0
227.1417211501541 70.88257541124544 0
228.4277036000103 70.14892538497804 0
227.1596188376485 69.38268167566777 0
228.4679143480082 68.64931639712276 0
227.1820640199988 67.88284597286379 0
228.4911174461679 67.14949036644808 0
227.2024325098517 66.38298376838509 0
228.5111398206042 65.64962374502446 0
227.2219247636673 64.88311038183649 0
228.5304860350806 64.14974849479754 0
227.241158284816 63.3832336934739 0
228.5496764341198 62.64987125613482 0
229.8390410220339 63.41638652755888 0
229.8581941072919 61.91650881271715 0
230.8896820116225 62.5297209817961 0
231.1666980831743 61.18314619450094 0
232.4560600917415 61.9496614330078 0
229.7805712468927 67.91600677636075 0
228.357965094003 76.14852396466809 0
228.2397097122129 77.62103722247386 0
217.7662134557083 92.53030613075141 0
216.4332869904542 93.51894600341619 0
228.2243014376688 88.14779531108265 0
228.2434421023198 86.64791743773492 0
229.8773356627602 60.41663128073017 0
230.9279806651834 59.52996959995669 0
220.4307073923114 88.04833750008517 0
220.4498480569604 86.548459626739 0
218.9996356076272 96.233154204683 0
219.1413453837437 87.28182226158012 0
219.1222047190927 88.78170013492581 0
220.2965132410951 96.9764124828921 0
221.6243660776234 96.31424210532833 0
228.1386685285294 89.64682464484117 0
422.4661768912437 59.13310924468037 0
306.4294884210036 76.62249339485491 0
316.4407720706232 73.78889896544449 0
207.236581697219 55.35509800994808 0
243.6872046203309 73.93222861828477 0
420.5233311965902 72.8071566711665 0
120.6781325183306 26.48643191325394 0
229.7910108065406 72.36773837634576 0
313.9105135281134 83.29768238538816 0
222.8337764188645 56.41739852312582 0
195.9466737955333 27.94017835910787 0
26.11376008321101 37.66364372134643 0
247.4357939631156 50.74315764971058 0
241.1062570241883 54.20541814385489 0
246.2267700501775 45.67458482120828 0
241.5377031136313 46.73815362046454 0
233.0604241137114 84.61763534215012 0
231.1290471452537 85.44076646848548 0
20.32269493299459 29.26935657783702 0
24.80890202917695 19.64110193327564 0
144.155344770512 25.76699558504169 0
305.7605132152723 26.04097010881129 0
195.5836121536155 81.85383187231433 0
211.6261254824705 71.33418091382988 0
246.4938666521863 77.6523004402907 0
424.9104351569084 46.31609470211961 0
216.5753065954123 30.49286814354881 0
210.2071560607795 27.87854969032031 0
211.0317653423335 21.76878201574579 0
231.0886253429532 63.90737175210889 0
262.3167588128701 91.48988802014492 0
220.4077353680798 83.5884100033924 0
46.79893708851584 17.8212268306673 0
217.9501510377752 42.36652912833225 0
218.3256815349931 44.98972808017682 0
417.1809646210877 20.25224116752784 0
424.005373620637 27.11361142003486 0
266.0445982777887 10.88876025346593 0
210.711610363252 88.53727100960926 0
213.3669708150243 91.25168252321185 0
209.9153139933696 91.74854305472626 0
241.0738226257563 61.82909665242451 0
237.3713110748882 62.94253719202872 0
237.1460840079848 59.67448996861637 0
217.240895947663 54.15866073009943 0
219.2494243452944 51.67303831885411 0
219.7177015174054 54.03490364682261 0
218.2991799156418 50.39118228863584 0
237.449964415073 96.9246332572846 0
238.1157051484858 94.12883616087993 0
212.5403461742974 96.74190611242457 0
219.19827052855 81.25132464279122 0
219.2568327302628 79.77756278136656 0
233.6641208629302 95.28287434293675 0
186.1520331021021 11.91495675994527 0
216.5355484971736 57.96494000991739 0
216.1908253725387 95.25863953153659 0
204.1870410585884 68.11259817129198 0
35.83755067940001 20.00469027581841 0
443.3942575802864 11.81840093359743 0
6.740598899011329 11.96120188815093 0
217.0490078852665 39.01628069857435 0
219.3182693812062 40.14537568091858 0
213.5286049620077 38.24370581717184 0
221.1051050369372 39.2047957229908 0
271.2743562774511 21.78518247306167 0
255.8391456267817 88.80066998162172 0
282.8174528171639 45.4663587413046 0
199.4089377870248 56.74118396846717 0
213.8046629350225 73.9867431465688 0
435.8412922588839 14.44636595810823 0
208.3710828624484 77.68924159347188 0
324.7568896678994 81.0926300796469 0
326.9071259632253 70.33623053123931 0
335.6152407644471 77.97597336304199 0
345.2796500284817 84.24064727398537 0
346.2923256037161 73.92162275555692 0
176.3478511921919 22.95160146454823 0
164.1916561616531 22.24699367522854 0
297.017734708263 20.2003220708371 0
316.7458997749254 21.20498056348924 0
170.2428078125842 34.07767036965862 0
157.949597504092 32.55496356823905 0
386.6138509237589 30.05073205279481 0
378.6031738042384 22.77561774825011 0
389.5930070706295 17.62694249868932 0
380.7407791915262 12.22783177235119 0
367.5618111084126 25.90289390544627 0
360.474811094467 18.4753281157699 0
347.5842917021689 21.07716179870835 0
433.9201046897834 55.4376075327877 0
430.8179675937384 34.7340664960637 0
396.8800760740124 88.38996132095477 0
52.17118897377158 88.34309816928175 0
58.67788271889897 36.99152094822146 0
63.40596232363192 27.00563316445607 0
74.59869778543924 26.38338427488247 0
68.69210245717434 17.64706283064744 0
80.95397188014067 35.4970010340319 0
85.43643030134466 25.14829361676511 0
92.18790020334731 34.30920573649787 0
97.17019757731182 24.92783049944809 0
108.6346938828681 24.41864976183439 0
102.6464975695938 14.47039565283276 0
58.26513563563703 17.73366971225523 0
215.8476027319908 78.85659232833035 0
441.0147195942544 31.15836482062164 0
9.832572214420289 30.82855812486615 0
216.6595267183306 63.50288295678512 0
218.049589404347 65.79151738685609 0
218.0486072228001 59.90617492674598 0
218.7919884219956 57.57439527184452 0
220.2556053409566 56.81130278687546 0
79.2487212527531 88.90012685634541 0
85.3544582893295 76.26312249304101 0
98.00633816137741 78.78483346754474 0
93.97060652149948 67.90708887374811 0
370.6356477491928 88.85385367387489 0
377.3704963755702 77.73341275613936 0
364.3218146439665 79.00157621489744 0
368.789268444649 68.32847579236491 0
383.290220436327 66.90694216637189 0
187.6490568375756 92.6036953217972 0
184.1932241199975 85.11771113557039 0
175.9998808110671 84.55611489013809 0
180.8089936699128 77.92463066887731 0
279.1817678963662 90.62468123177932 0
231.8913068816363 96.1133781771382 0
427.4369256640177 86.99530140285776 0
22.19318668657905 87.33880122959697 0
32.88704924503313 76.28906472910239 0
157.6166945168328 11.25092620828171 0
229.5319056526466 87.45725915504852 0
229.584663399029 85.99982933938669 0
342.9985067129389 9.500421071541343 0
414.4690334525106 40.67377955128226 0
131.0586433456922 10.29584901098418 0
170.5626636333165 91.95413727564365 0
166.6387278274671 84.03501142524112 0
160.3910192316559 91.51797751295979 0
156.3543049881929 81.4793140104111 0
227.5122088569875 51.4966763686441 0
290.2469536960203 90.66064959547833 0
46.51718298753237 77.08340832497349 0
10.79870743599082 55.75227142992588 0
20.26303969722058 61.83162663591774 0
20.75825927218625 48.65388239315024 0
104.7286298726729 89.81442729877475 0
110.5280483207344 79.03730754053541 0
284.244450675222 22.82790190123634 0
15.47487257092338 14.97167650954413 0
231.2821504541184 50.68003750041565 0
232.6417760302694 51.37615956988975 0
232.5977848869972 52.99530971856646 0
234.1179992439668 52.04220551421555 0
233.9657238270239 49.71225217449789 0
233.5440756353153 47.18700741011177 0
234.3970112792637 54.57455016304197 0
236.5986684113021 51.39710289991522 0
236.1190751911846 47.67425962470212 0
234.7573979182006 45.00517380985301 0
232.239585660194 44.37681519392496 0
233.4673098970192 42.41303890944658 0
231.3969776107238 41.9318249426606 0
231.5102369589361 46.7775487093978 0
237.3550713629436 42.05706571590792 0
235.1684754309393 39.01400671986568 0
232.3813324548139 49.85946353784888 0
239.3758246940341 74.8708197729938 0
232.5565444442973 98.65656542577837 0
231.5587771573036 97.55260030854592 0
230.7088277177259 96.6514600621265 0
217.7307438301098 98.65944334638533 0
344.9531705801098 33.54787242661841 0
220.8416519912969 47.85312052139379 0
219.4134407605022 47.74695349258937 0
223.504090515381 98.70955294839851 0
224.3603100039208 97.48768605384329 0
225.8125635214303 97.51214211207714 0
226.5088503471985 98.71879857135244 0
227.294077804973 97.43985209424586 0
228.7191724366077 97.51920893415912 0
228.0467199346127 95.9750536206067 0
223.8676643077191 55.36209733108511 0
74.01524300359561 8.642181811333014 0
390.1221906372358 77.78822085869855 0
220.4139191878314 98.58395672923801 0
229.4904540777711 98.79596899029816 0
115.3515641110209 35.42821881424638 0
263.0446866722554 64.96589641441638 0
63.8783297412045 8.682868089452832 0
219.321885628286 85.98289478395156 0
232.3134009016771 77.47458593961245 0
230.2755944278591 78.48712824906782 0
230.848688225049 80.00080922887392 0
229.4061436517559 79.67116608169613 0
231.0606262574229 75.61135423962207 0
232.5105157515112 80.14131696143798 0
241.7352882197802 42.86387833645192 0
229.9539448864441 54.41721857877585 0
231.2412227153573 55.18705556133138 0
231.2238261450749 56.68409852782907 0
231.2647034599786 53.69695772870708 0
229.9156170880723 57.41701966910111 0
226.1234650847394 53.67072003373815 0
231.1619643974414 58.15796295353512 0
232.2448286358008 57.5917632814677 0
226.1208730427851 56.6174085169522 0
225.9709715675359 61.11684595375294 0
228.587974065939 59.65011571685531 0
223.362237048219 57.8499113370644 0
227.2603241819949 61.88335866976073 0
225.9518221465799 62.61672003587683 0
225.9326603410429 64.11659660491679 0
225.8940426822536 67.1163478437341 0
225.4080959224035 95.45876978896362 0
225.8555918018278 70.11610142628444 0
219.1195181184621 82.76153320386851 0
229.5409244029643 89.12882563638937 0
229.8006655448072 66.4161410727871 0
231.089940528627 67.18265520073194 0
231.0709947599143 68.68253556124002 0
221.7583507301789 85.81509699189726 0
231.1025937262127 65.63685747240484 0
225.8739972421194 68.61621417047452 0
224.5475332368644 70.84946972866214 0
224.5284665902226 72.34934854654063 0
225.7221400791368 80.61525334067944 0
227.003995159467 81.39439604904595 0
227.0306427523553 79.88189070583859 0
221.6435067422761 94.81436423197982 0
222.8816020036065 95.59335798110898 0
219.0823888463133 91.78403715066747 0
217.7927710804992 91.01795212366986 0
226.9540800937525 85.88140219922772 0
228.2680358708864 85.16225198713626 0
228.2826322822755 83.65053042816513 0
229.6663139643137 84.52300437756604 0
229.6055086583974 82.95333269982665 0
231.1469137504164 83.93653469283204 0
232.5910026616896 82.84608327875236 0
228.2948045806969 82.16983292932149 0
229.8325457389003 81.37689028489369 0
228.3725146080105 74.64858750143372 0
219.3053227699138 72.28269349009585 0
219.3473211515096 70.78310731509362 0
221.8731947180817 76.81582975181392 0
220.5646920448642 77.54919238665468 0
220.6596334442932 70.04979329677461 0
219.3701444483756 69.28327643766255 0
219.4252618734677 67.79775395788735 0
222.9401090866676 94.07709363436553 0
224.5856314662385 67.84971164645523 0
220.7810347074732 59.590091492425 0
220.7563089410683 62.55041642033664 0
219.5015215925446 61.81485269168417 0
219.4863966439848 63.35203377295271 0
226.992361423053 82.88164645253363 0
225.607296091232 89.61452058076296 0
224.6241802197295 64.84995936632605 0
223.0477127387477 86.58161223040292 0
223.2199762533414 73.08271133880845 0
224.5093378506923 73.84922657205715 0
229.8120919152819 64.86268817744693 0
223.0859940680505 83.5818564837091 0
220.5838327095144 76.04931451330812 0
225.836250376177 71.61597673763001 0
220.7371431652234 67.05173283508546 0
221.8349133887826 79.81558549850871 0
225.5881554265814 91.11439845410987 0
221.7009287362288 90.31473061193779 0
225.913380761742 65.61647253497541 0
219.5332024380097 76.93598019585025 0
219.3024654424765 78.30729384386716 0
220.4115667276621 89.54821537343034 0
225.760421408435 77.61549759398568 0
226.8855760590516 90.38089439600493 0
220.5565613958971 79.0523817114848 0
228.568831819157 61.14999468395258 0
229.6958384276323 69.34536809532337 0
220.7449674619722 64.0521509459829 0
228.1054505972924 91.14652287140169 0
229.5041749756936 91.84607581796749 0
217.9310276500009 95.47901591531814 0
217.4458533566585 96.95483535609168 0
221.7640923918001 84.3218368057759 0
224.662466061118 61.85020501934139 0
227.0170563922953 78.35427911960866 0
228.3735842785584 94.268938193392 0
229.3064980582108 95.24840473679092 0
220.419612822751 85.1063806755805 0
219.1025099137415 90.28251013320619 0
218.0711055593031 89.66915453856605 0
217.5898535868509 88.37477745271924 0
217.5855429732104 86.44401356949513 0
229.8463371670116 58.88699869777307 0
72.28948391151211 77.41190742665188 0
224.2834115596955 51.06048057083589 0
222.8532260965459 97.21868526377274 0
208.803900704138 68.33816259525545 0
207.4622759557562 61.79699250095862 0
214.0968103142798 93.90288539365177 0
149.3710774824922 72.74918006986609 0
232.2791746584527 59.58097449512248 0
233.0781764953947 56.20588959539888 0
219.4887691798201 60.36561378634989 0
439.5744518974824 80.72469463012746 0
10.36719991500523 80.8376213779527 0
422.6206567117569 7.156810516573353 0
27.25943592727703 6.886414205101943 0
240.7787718705996 88.01825130493211 0
244.6614459096162 87.53312923785398 0
404.991026892495 7.668352223769881 0
44.94115310010704 7.698203219474499 0
221.1571872060415 40.67475705953126 0
221.2530401224657 43.52060641133296 0
219.7310770058687 42.6529821028407 0
221.262635921052 44.95391274657352 0
228.7464806422416 42.06709113939238 0
228.8594508588715 40.63333976147493 0
230.611371178167 39.88606446262666 0
228.7469598775248 44.96047165329658 0
230.280742730305 44.31880187802241 0
274.543852932419 60.72700872373591 0
221.7542367699706 57.36126027826116 0
229.669953570772 73.88068938357246 0
122.2174760832811 64.47852911455907 0
314.3746819110868 34.32957106751829 0
178.1555531626844 69.86790314711233 0
210.7173714769916 74.82550171653881 0
159.1365267085891 71.96724632671224 0
238.0223023898533 54.48102008594339 0
318.6187132514074 63.20401380778029 0
144.6241024740316 82.07037501067077 0
59.32459216075911 77.4246329872408 0
217.463367985505 83.34271042660994 0
229.4238813120917 37.34242358515037 0
232.1650215993944 37.54364267391403 0
234.901664458515 33.94447451175866 0
198.4378547739732 36.08073036456548 0
229.4912063640663 93.30039807805507 0
143.4151712839121 45.85079638828876 0
219.4708487570156 64.90996564288761 0
292.2448942670392 52.30897600200996 0
219.4037497860649 58.99719917973061 0
236.3553448570108 91.27318058250437 0
296.5089289780694 81.2355472982136 0
217.8241122688763 68.58836187863267 0
218.0597446525331 70.07913810899804 0
217.780074026635 71.58405295422506 0
65.39980468625036 66.84882637455891 0
354.2106366096746 9.590599401806225 0
329.2445702476622 59.67140210411827 0
400.8493271776551 16.29592786961883 0
241.7759078790204 94.00128209089007 0
230.0608143506282 45.81539313698878 0
216.560353584834 35.38045299361251 0
212.3960262757984 33.90411004767808 0
246.0755460383981 83.525841791274 0
274.7051755364795 52.35536020391434 0
230.151295400098 41.38022533746918 0
337.841794319362 66.90579364115129 0
228.2963575235825 80.6240386490577 0
232.5157797673983 54.53195255340916 0
229.6277741693712 75.33419151435385 0
218.5642346822196 54.99614544493919 0
218.147878442976 67.10087296771306 0
371.7482842552543 56.89346391994496 0
239.4604898799228 90.996101816319 0
139.089299422253 91.22663384582586 0
220.0222879885862 45.64781221443456 0
409.0803953231212 75.8795010918697 0
163.1316713593527 41.44120795035321 0
147.6032719358595 37.1202428978853 0
321.4219432101948 91.15685351825765 0
228.7095137046932 47.79068031606926 0
229.9539130142632 42.80067379042465 0
219.9800869471799 44.20853229870283 0
79.47708932410492 17.19790386961798 0
93.51596030653329 7.967379267382519 0
266.9577179559467 48.5821647517318 0
203.3210576813908 30.47184704229805 0
348.7236419836466 63.33187500728284 0
181.067654413899 47.73718102830281 0
229.6690910499787 70.77474289344381 0
231.3790997771629 72.43575078952901 0
229.6254766450826 76.94315939639073 0
218.6811307546046 43.58820341365796 0
217.3495312350648 46.64190214332173 0
255.9909507721254 66.01574887298868 0
220.037157910172 41.41876833674628 0
218.0994888355465 80.50714993077543 0
217.8451863671818 79.2629365043465 0
217.8843527565351 77.10945765191383 0
211.2460291914302 94.27687989862771 0
277.8069403783441 82.07199864984301 0
232.4413989196611 68.03700800986741 0
232.2408010913474 66.45882685915102 0
232.6298335330793 64.71194241651921 0
438.7028100977975 6.303245557784696 0
128.0598856720262 91.51654755481043 0
235.2490439901732 7.929854896873636 0
327.8396635948397 19.28751742545419 0
391.9818829269529 58.54283867507219 0
209.5147851616473 10.21188823936179 0
228.1927999455849 79.09044001261272 0
250.1588325221462 89.06872190831139 0
232.3647795029116 71.16524646347064 0
219.4299833965025 66.36594735995244 0
426.1133858220633 16.13237006180134 0
357.0271874035826 70.75315087767993 0
234.1706227641151 58.36761955159427 0
234.693646670602 61.05767053162846 0
268.9975504326297 31.93398662390715 0
224.9497847515553 54.45806526255953 0
207.9827044919784 51.81421443477035 0
220.831707402891 53.14418034448801 0
230.949845905697 86.76818353089348 0
238.3375301577617 45.49489689351223 0
320.7735053312073 9.775271321109441 0
433.3406342283885 24.02623295612265 0
275.9129543845504 36.9442129831627 0
254.3406181103121 24.01716560613787 0
215.7440484516255 16.37394499721875 0
31.70911083034862 47.19823179513418 0
217.992715571058 62.54864580349756 0
229.9846909425074 47.17947168195958 0
226.1554299629839 52.14766036136768 0
122.4840200840825 81.82037908147026 0
231.2920755979692 43.30607891812097 0
232.4490819032188 40.58334948009869 0
230.9029616837925 82.62923159710064 0
218.9723934661507 56.17768261492711 0
236.1426849343369 56.79317205881869 0
371.5542839871154 15.77068138841343 0
218.2852580686653 61.20182192195179 0
232.1232507516374 88.6823346159558 0
216.3590071434704 89.96902087828069 0
199.3534615945363 85.40060078701461 0
191.0387153196811 86.6986896769163 0
188.5317649562936 78.95422609745863 0
218.8885469053819 46.48077262821698 0
220.5681305254207 58.20726835940363 0
226.4067909701475 96.31224098423027 0
11.24999999999239 5.698318955178003 0
204.6806159765637 58.44823279099515 0
243.6743443588149 80.73875993754261 0
153.603603498242 20.79522467986128 0
203.0865596018385 22.49421608206482 0
237.3642840356355 77.22851012670294 0
243.0607110074199 90.85862574813122 0
293.4632969606064 8.858405575598631 0
232.682781845471 81.35524961433714 0
224.1014194050597 96.1318369854126 0
265.6322453933484 86.81706885830712 0
410.5400063422006 14.44121835729877 0
186.3685222881107 67.21727233910093 0
172.6591811447292 77.24425778724316 0
232.676771905509 74.36708230431128 0
248.0095689408028 20.36021790156506 0
217.7089161208704 40.78525565642332 0
89.70229935957668 16.74512503485824 0
234.7386274264299 63.83074054940111 0
244.7454139134946 96.9268322676581 0
20.8207987796691 73.90286814763051 0
118.786260322222 72.86632181063071 0
210.4852348568383 40.77582853345517 0
221.4447705490925 97.56471087312016 0
216.2367618716047 82.56944714972116 0
387.47423130077 7.476037985381538 0
219.6180165234146 33.31512104584379 0
102.5969263002228 70.55267783335272 0
206.1257213213594 96.82178023150772 0
41.44836384426868 66.5281535770396 0
230.9806386569867 47.96810299783935 0
242.4396756938324 15.67838296486683 0
192.7856100634827 18.65925480583173 0
310.3757831153553 91.79986127099814 0
240.4050868031336 57.74833557078409 0
239.4994186267223 52.04618710267316 0
353.8677578643078 79.46393456031129 0
218.9067368559788 41.45842038875658 0
16.6666150458457 36.66805710001054 0
217.4643171616326 55.93549861731229 0
177.8950381281306 40.42586434692473 0
245.9067179850744 39.82414768011895 0
218.9133220052547 97.61490175540722 0
230.8737375763749 89.50301015312216 0
218.1949734820085 58.61067734705962 0
219.5007103956416 52.94047496484164 0
218.1527626764259 52.41918145922794 0
431.6681503917149 74.3184311303901 0
236.0249933991609 95.24692548673305 0
232.6076006236993 45.92186966732729 0
225.0079161954364 55.89213255521121 0
230.5300584167981 95.29344489847955 0
218.7310038840179 48.99074816613597 0
218.3467263214948 47.69725044844502 0
216.693836821515 65.06987323265622 0
231.2923370561404 45.44233873049265 0
215.6682571213998 76.17580488867446 0
31.18064246144609 13.13075170031684 0
247.2752549536819 91.13124123712535 0
337.3667011626034 17.26697908515418 0
233.1985913748507 97.19883237088597 0
218.0588189860418 64.19581979927256 0
231.8354802749791 94.55917961045307 0
203.61855915957 53.34353170870887 0
260.3079255173456 70.04975241258067 0
373.8367190728301 7.297839717116478 0
230.240644015993 97.79222043974389 0
232.5170774587268 85.89905292823246 0
239.1219497739569 49.00965262873198 0
30.56800207492131 65.607978176351 0
114.2299415787208 16.84692150058473 0
231.1521815230519 40.94536605571378 0
229.0955693146551 90.40909718540513 0
125.2876459969896 17.81488932215706 0
225.0000000000007 51.91296346628746 0
261.2466035917789 19.46544118630509 0
229.4442996567234 96.39548116802443 0
214.8010955446596 96.67327251202045 0
277.042755362276 29.59734523131722 0
136.2185054816391 18.56581962923406 0
9.638836317170522 91.13528452150994 0
440.2755165154544 91.04399920659705 0
231.456752063879 90.81543624033537 0
22.96281375660481 12.45041656413122 0
209.9272948181798 36.62656347359816 0
109.8384463025564 8.231285891283225 0
207.8559832228841 94.21468728166613 0
444.6745272036466 5.325535006030147 0
5.449890681452353 5.432230039331705 0
421.5864781844355 35.66956522291983 0
273.859355214369 44.62327270888226 0
216.1293468949533 7.018650029690614 0
244.666489602503 54.6683906172583 0
230.293871171086 92.69797503959765 0
217.1878979766096 43.77359593782445 0
184.8643453739327 73.26016684449863 0
429.667850369314 65.74467208275637 0
163.6281961765657 48.90606928255677 0
193.2266246729236 92.46083057757538 0
215.9691766332394 92.03179884216362 0
231.9394637667685 69.7520379890076 0
164.649162775946 76.74723680390704 0
223.9755105261957 56.563919566837 0
226.5939063031638 50.92024223319454 0
242.7849045057795 77.24597927588357 0
235.1102239935703 96.8693454938566 0
260.3893394323368 86.35808548058934 0
231.0782719347623 29.61291073546356 0
443.2401226542584 56.2499999999216 0
230.7449376262423 69.84192213482842 0
400.8599236552327 78.90770232496624 0
206.6303872030588 65.1055363324682 0
305.2720517874131 84.93581666435921 0
236.1033903982431 98.38681720612091 0
216.6411817005466 80.79519075830262 0
216.390747206291 73.08016846222341 0
218.0389205878112 73.08210787993066 0
100.7025262150008 62.68410977926067 0
213.8972778511009 98.37646333306647 0
229.1479448764991 78.36258619244825 0
231.7177487676632 93.06740779225262 0
271.4121046032243 85.03773530926334 0
236.5821505926967 65.72519765801951 0
39.62068908307418 13.00005070742181 0
208.0106725491153 32.91401877956247 0
85.97830712470152 64.48308803706844 0
230.5118011976449 73.15670672498555 0
15.1037131765665 23.21041497953446 0
232.279626862167 48.39592127499234 0
345.3884206278701 93.49424629615302 0
269.4703456523097 64.79468836622131 0
220.1255468331366 46.80215778165789 0
207.5232800009128 16.96824830002267 0
193.7981200371406 76.47478958811281 0
28.08194385695185 55.9388046188887 0
258.102906222823 94.9185709949069 0
218.6313218348554 53.77290901975313 0
242.6393031431393 50.70731563112463 0
229.8918372692752 94.34140130851472 0
225.1454146142665 96.57722707967409 0
418.0843284728937 12.98989887852279 0
248.6454436105936 80.8927040444724 0
249.3318077408153 96.3377092928994 0
$EndNodes
$Elements
4 2216 1 2216
1 1 1 2
1 1 17 
2 17 2 
1 6 1 2
3 6 76 
4 76 7 
1 11 1 5
5 11 106 
6 106 107 
7 107 108 
8 108 109 
9 109 12 
2 1 2 2207
10 189 594 717 
11 116 170 372 
12 977 623 1030 
13 299 710 956 
14 912 244 948 
15 752 751 1018 
16 169 643 666 
17 469 670 1073 
18 586 775 1075 
19 159 731 935 
20 900 947 995 
21 196 886 1107 
22 795 893 1000 
23 192 739 1033 
24 914 265 953 
25 265 785 953 
26 668 738 1040 
27 400 658 1089 
28 441 690 691 
29 1001 631 1051 
30 418 440 444 
31 775 143 1075 
32 551 982 1089 
33 1019 752 1104 
34 731 367 935 
35 909 1019 1104 
36 271 638 1081 
37 630 226 631 
38 402 620 879 
39 948 244 969 
40 256 755 927 
41 596 232 974 
42 632 631 1001 
43 441 689 690 
44 401 640 806 
45 4 187 193 
46 670 469 961 
47 171 479 1091 
48 739 649 1033 
49 738 168 1040 
50 710 709 956 
51 150 466 476 
52 606 826 828 
53 610 177 669 
54 638 271 934 
55 700 701 1031 
56 206 256 927 
57 933 700 1031 
58 237 236 782 
59 594 189 960 
60 444 440 452 
61 604 603 1170 
62 783 240 831 
63 259 1006 1100 
64 196 187 886 
65 415 417 418 
66 771 877 878 
67 461 465 636 
68 674 156 942 
69 678 723 940 
70 221 226 630 
71 1014 472 1024 
72 465 444 977 
73 695 680 1009 
74 908 909 949 
75 651 903 979 
76 609 671 962 
77 193 187 194 
78 45 46 763 
79 606 722 826 
80 427 429 689 
81 172 614 680 
82 771 538 877 
83 669 312 916 
84 448 612 918 
85 461 636 1079 
86 232 596 973 
87 461 444 465 
88 873 181 1110 
89 155 621 902 
90 710 314 774 
91 418 417 440 
92 399 402 883 
93 905 622 1070 
94 314 710 992 
95 643 468 666 
96 116 117 170 
97 444 452 977 
98 234 237 785 
99 1006 606 1100 
100 379 448 660 
101 660 448 918 
102 785 237 975 
103 682 732 923 
104 953 785 975 
105 219 221 630 
106 732 458 923 
107 156 674 1058 
108 236 237 781 
109 237 234 781 
110 59 201 1064 
111 177 610 668 
112 909 154 925 
113 174 204 205 
114 614 172 679 
115 621 155 693 
116 658 400 918 
117 677 678 940 
118 598 799 913 
119 214 216 601 
120 620 402 806 
121 1021 700 1072 
122 150 193 466 
123 671 609 1036 
124 393 414 415 
125 1063 753 1161 
126 401 806 924 
127 610 669 916 
128 911 750 1088 
129 697 472 1014 
130 441 427 689 
131 391 385 657 
132 750 911 1018 
133 454 703 885 
134 1014 845 1094 
135 612 448 888 
136 626 168 654 
137 636 465 1085 
138 172 680 695 
139 887 820 1042 
140 210 214 603 
141 784 783 831 
142 609 176 1036 
143 445 444 461 
144 61 168 626 
145 676 677 1023 
146 216 218 219 
147 622 905 976 
148 174 206 927 
149 746 743 747 
150 571 892 1001 
151 234 785 1047 
152 785 265 1047 
153 169 32 643 
154 826 827 828 
155 712 714 1029 
156 226 227 228 
157 219 218 221 
158 415 414 417 
159 995 171 1091 
160 481 936 937 
161 26 692 968 
162 677 158 1023 
163 206 208 256 
164 259 261 1006 
165 947 362 995 
166 628 403 1026 
167 221 225 226 
168 603 601 1170 
169 990 59 1064 
170 680 625 1009 
171 176 609 1112 
172 448 381 646 
173 650 651 1049 
174 703 454 1158 
175 429 687 689 
176 226 225 227 
177 810 985 1133 
178 764 1085 1086 
179 264 263 871 
180 627 403 628 
181 764 476 1085 
182 831 240 1020 
183 411 671 961 
184 239 829 1041 
185 395 403 627 
186 692 26 1118 
187 231 265 974 
188 605 606 828 
189 897 191 998 
190 117 711 1131 
191 645 873 1110 
192 600 735 1071 
193 780 402 879 
194 691 595 777 
195 305 709 999 
196 416 1029 1128 
197 233 229 757 
198 987 571 1051 
199 252 258 259 
200 372 374 1119 
201 228 227 229 
202 174 57 204 
203 476 466 1085 
204 174 205 206 
205 448 646 888 
206 686 693 779 
207 98 99 1175 
208 587 820 887 
209 201 60 626 
210 1067 602 1125 
211 236 235 786 
212 374 629 1119 
213 399 398 1057 
214 441 691 777 
215 260 262 1115 
216 391 657 1034 
217 33 34 202 
218 242 252 605 
219 715 152 1154 
220 395 394 398 
221 456 608 647 
222 137 138 649 
223 370 196 1107 
224 59 60 201 
225 668 310 738 
226 372 170 373 
227 1029 714 1128 
228 228 229 230 
229 735 173 1071 
230 799 353 913 
231 376 394 395 
232 727 728 729 
233 761 181 873 
234 242 605 829 
235 182 45 763 
236 466 636 1085 
237 452 623 977 
238 237 782 975 
239 671 411 962 
240 383 391 646 
241 1028 410 1131 
242 715 367 731 
243 191 659 998 
244 1022 920 1067 
245 429 431 687 
246 909 926 1019 
247 692 690 1050 
248 152 97 619 
249 210 603 1074 
250 472 464 644 
251 693 155 779 
252 630 631 632 
253 968 692 1050 
254 709 708 999 
255 464 462 644 
256 364 674 942 
257 310 363 738 
258 644 462 1072 
259 252 257 258 
260 633 461 1079 
261 402 399 924 
262 395 398 399 
263 894 699 933 
264 418 444 445 
265 372 373 374 
266 890 628 1132 
267 746 747 920 
268 116 372 1061 
269 893 746 1022 
270 33 202 643 
271 659 191 988 
272 828 827 1020 
273 1000 893 1022 
274 99 100 1052 
275 219 630 1067 
276 367 715 984 
277 214 215 216 
278 114 115 145 
279 100 101 146 
280 115 116 1061 
281 229 227 757 
282 176 720 1036 
283 761 873 1075 
284 311 656 932 
285 619 97 1168 
286 177 64 1008 
287 766 887 1042 
288 46 150 763 
289 267 654 1002 
290 387 393 657 
291 451 737 1060 
292 754 256 787 
293 117 118 711 
294 984 715 1154 
295 214 601 603 
296 393 415 1096 
297 230 229 231 
298 601 216 1125 
299 240 829 1020 
300 829 828 1020 
301 80 172 695 
302 410 611 1027 
303 374 376 627 
304 57 174 1140 
305 473 472 697 
306 415 418 1004 
307 146 101 637 
308 171 98 1175 
309 669 177 1008 
310 256 754 755 
311 706 179 708 
312 462 461 633 
313 717 594 1080 
314 221 224 225 
315 976 623 1127 
316 216 217 218 
317 114 145 639 
318 909 925 926 
319 737 451 1054 
320 169 666 667 
321 261 259 1025 
322 176 30 720 
323 381 383 646 
324 726 120 728 
325 933 699 1077 
326 210 212 214 
327 436 683 684 
328 295 309 676 
329 447 599 928 
330 239 242 829 
331 471 464 472 
332 676 309 677 
333 751 752 1019 
334 963 92 1066 
335 228 230 238 
336 807 264 1105 
337 606 605 1100 
338 479 171 1175 
339 651 161 653 
340 403 399 883 
341 162 737 1017 
342 436 684 685 
343 882 403 883 
344 374 627 629 
345 667 666 670 
346 194 187 196 
347 374 375 376 
348 878 877 1171 
349 242 251 252 
350 675 70 1058 
351 164 129 682 
352 86 165 681 
353 371 678 762 
354 475 473 480 
355 34 3 1124 
356 264 807 1076 
357 648 659 988 
358 1000 632 1001 
359 672 297 673 
360 216 219 1125 
361 686 684 693 
362 376 395 627 
363 951 818 994 
364 178 704 736 
365 833 549 1149 
366 727 729 1134 
367 710 299 992 
368 827 831 1020 
369 265 231 1047 
370 376 377 394 
371 219 1067 1125 
372 60 61 626 
373 628 890 983 
374 727 726 728 
375 395 399 403 
376 736 704 737 
377 1011 201 1108 
378 472 644 699 
379 163 661 663 
380 628 1026 1132 
381 403 882 1026 
382 691 690 692 
383 298 297 672 
384 455 456 647 
385 55 203 925 
386 975 782 1152 
387 70 675 1098 
388 729 891 919 
389 632 1022 1067 
390 877 929 1171 
391 456 607 608 
392 674 673 675 
393 605 828 829 
394 383 385 391 
395 254 268 362 
396 244 912 1163 
397 664 179 1162 
398 143 761 1075 
399 703 702 885 
400 393 412 414 
401 189 681 1143 
402 640 401 980 
403 97 98 1168 
404 178 127 702 
405 88 179 706 
406 377 379 660 
407 782 236 783 
408 672 673 674 
409 682 190 732 
410 385 387 657 
411 260 258 262 
412 732 719 1062 
413 739 608 1160 
414 576 890 1132 
415 5 59 990 
416 799 598 1135 
417 445 461 462 
418 84 189 717 
419 80 8 172 
420 15 135 173 
421 178 702 703 
422 666 450 670 
423 431 436 687 
424 391 889 1144 
425 631 226 1155 
426 733 173 735 
427 169 667 720 
428 979 905 1070 
429 379 381 448 
430 245 254 613 
431 996 232 1133 
432 262 258 934 
433 32 33 643 
434 201 1011 1048 
435 974 232 996 
436 462 633 1072 
437 615 37 1059 
438 683 457 684 
439 705 703 1158 
440 654 267 1108 
441 199 137 649 
442 101 102 1146 
443 201 626 1108 
444 129 130 682 
445 85 86 681 
446 697 1014 1094 
447 472 699 1024 
448 387 392 393 
449 644 700 1077 
450 363 307 656 
451 150 476 763 
452 162 736 737 
453 674 675 1058 
454 657 393 1096 
455 130 190 682 
456 189 85 681 
457 30 31 720 
458 928 599 970 
459 639 890 1110 
460 113 114 1151 
461 166 28 725 
462 656 307 932 
463 303 364 368 
464 593 245 613 
465 1062 719 1102 
466 436 433 683 
467 96 152 715 
468 642 716 1095 
469 960 189 1143 
470 711 1028 1131 
471 164 682 923 
472 127 128 702 
473 87 88 706 
474 475 480 481 
475 632 1000 1022 
476 281 279 932 
477 173 135 696 
478 303 301 364 
479 611 410 1028 
480 646 391 1144 
481 262 263 1115 
482 454 885 939 
483 891 729 922 
484 471 472 473 
485 885 923 939 
486 439 443 455 
487 621 455 647 
488 481 937 938 
489 457 455 621 
490 28 29 725 
491 681 165 774 
492 938 833 1149 
493 549 551 1149 
494 439 457 683 
495 455 443 456 
496 225 245 593 
497 226 228 1155 
498 685 684 686 
499 279 311 932 
500 656 311 948 
501 297 295 676 
502 128 164 702 
503 165 87 706 
504 597 963 1066 
505 234 235 781 
506 190 718 719 
507 126 178 736 
508 66 67 723 
509 684 457 693 
510 118 119 153 
511 96 97 152 
512 31 169 720 
513 716 759 760 
514 721 261 807 
515 31 32 169 
516 61 62 168 
517 1017 737 1054 
518 647 608 1090 
519 661 163 963 
520 84 85 189 
521 130 131 190 
522 376 375 377 
523 163 663 664 
524 259 258 1025 
525 214 212 215 
526 439 455 457 
527 369 368 624 
528 734 733 735 
529 753 745 1161 
530 301 298 672 
531 374 373 375 
532 1052 479 1175 
533 16 220 730 
534 707 710 774 
535 178 703 704 
536 252 251 257 
537 1103 692 1118 
538 165 706 707 
539 83 84 717 
540 197 679 1141 
541 691 692 1103 
542 29 176 725 
543 179 664 1069 
544 616 970 1037 
545 135 136 696 
546 158 677 940 
547 415 1004 1096 
548 128 129 164 
549 86 87 165 
550 364 672 674 
551 222 366 740 
552 119 120 726 
553 667 670 671 
554 240 783 786 
555 839 955 997 
556 457 621 693 
557 707 706 708 
558 592 1034 1096 
559 435 439 683 
560 784 951 994 
561 165 707 774 
562 452 440 453 
563 312 669 991 
564 198 733 734 
565 651 653 903 
566 78 79 200 
567 136 137 199 
568 433 435 683 
569 302 301 303 
570 435 438 439 
571 193 194 195 
572 263 262 1153 
573 679 197 1129 
574 29 30 176 
575 63 64 177 
576 77 78 648 
577 190 719 732 
578 136 199 696 
579 202 34 993 
580 227 225 593 
581 398 394 400 
582 806 402 924 
583 608 607 1160 
584 722 606 1006 
585 622 453 1049 
586 759 716 1093 
587 159 94 731 
588 118 153 711 
589 231 229 233 
590 290 289 762 
591 650 161 651 
592 126 127 178 
593 88 89 179 
594 784 831 951 
595 167 66 723 
596 202 1037 1065 
597 871 263 1126 
598 221 218 224 
599 704 703 705 
600 206 207 208 
601 198 134 733 
602 477 1106 1112 
603 289 371 762 
604 271 262 934 
605 678 309 762 
606 707 708 709 
607 456 600 607 
608 364 301 672 
609 235 236 781 
610 431 433 436 
611 95 96 715 
612 362 268 655 
613 439 438 443 
614 300 298 301 
615 296 295 297 
616 190 131 718 
617 638 934 957 
618 623 452 1127 
619 649 138 1121 
620 1004 592 1096 
621 295 293 309 
622 102 103 180 
623 112 113 181 
624 131 132 718 
625 216 215 217 
626 58 5 990 
627 175 37 615 
628 571 1001 1051 
629 294 293 295 
630 551 1089 1148 
631 398 400 694 
632 78 200 648 
633 673 297 676 
634 369 624 625 
635 783 236 786 
636 782 783 784 
637 723 67 940 
638 1099 770 1109 
639 677 309 678 
640 238 230 985 
641 998 659 1009 
642 603 604 787 
643 120 121 728 
644 27 28 166 
645 65 66 167 
646 747 744 748 
647 740 366 756 
648 404 442 919 
649 729 919 1134 
650 90 91 163 
651 124 125 162 
652 900 995 1091 
653 917 389 1045 
654 368 364 942 
655 655 171 995 
656 614 308 724 
657 103 104 758 
658 701 700 1021 
659 1037 599 1065 
660 303 369 724 
661 147 108 765 
662 107 147 768 
663 234 233 235 
664 306 284 307 
665 589 308 614 
666 293 290 762 
667 174 927 1140 
668 702 164 885 
669 711 153 712 
670 670 450 1073 
671 758 144 759 
672 629 628 983 
673 104 144 758 
674 177 668 1040 
675 303 368 369 
676 436 685 687 
677 773 686 779 
678 310 307 363 
679 263 264 1115 
680 111 112 761 
681 481 480 936 
682 431 432 433 
683 110 143 775 
684 144 105 776 
685 193 195 466 
686 363 656 1010 
687 648 200 659 
688 728 160 729 
689 225 224 245 
690 429 430 431 
691 768 767 769 
692 261 1025 1076 
693 1025 260 1076 
694 186 769 770 
695 687 685 688 
696 707 709 710 
697 68 69 158 
698 24 25 157 
699 109 12 185 
700 11 106 186 
701 147 767 768 
702 121 160 728 
703 185 12 775 
704 11 186 776 
705 763 476 764 
706 168 62 1040 
707 107 108 147 
708 186 106 768 
709 109 185 765 
710 755 926 927 
711 206 205 207 
712 1053 734 1102 
713 134 15 733 
714 302 303 724 
715 735 600 1013 
716 292 293 294 
717 300 301 302 
718 12 110 775 
719 105 11 776 
720 845 931 1094 
721 186 768 769 
722 171 655 1168 
723 106 107 768 
724 108 109 765 
725 223 222 740 
726 121 122 160 
727 93 94 159 
728 227 593 757 
729 79 80 695 
730 775 586 1056 
731 104 105 144 
732 110 111 143 
733 296 297 298 
734 466 195 634 
735 408 406 891 
736 716 642 1093 
737 269 642 1095 
738 199 649 739 
739 664 663 665 
740 292 290 293 
741 277 275 912 
742 770 769 771 
743 958 123 989 
744 357 356 772 
745 427 428 429 
746 125 126 736 
747 896 718 1113 
748 789 788 791 
749 23 24 773 
750 294 295 296 
751 466 634 636 
752 788 248 791 
753 322 317 788 
754 322 788 789 
755 317 249 788 
756 322 789 790 
757 794 580 884 
758 323 319 792 
759 792 794 884 
760 319 322 792 
761 323 792 884 
762 322 790 792 
763 580 794 892 
764 316 361 793 
765 792 790 794 
766 320 325 796 
767 325 355 796 
768 318 320 796 
769 324 323 798 
770 798 579 867 
771 350 798 867 
772 797 350 800 
773 800 350 867 
774 326 350 797 
775 329 353 799 
776 327 329 799 
777 354 801 802 
778 801 565 802 
779 797 800 801 
780 800 565 801 
781 803 349 860 
782 338 336 848 
783 797 801 875 
784 812 618 987 
785 328 797 875 
786 349 803 841 
787 863 543 880 
788 343 341 841 
789 620 874 879 
790 354 802 848 
791 349 338 848 
792 336 354 848 
793 801 354 875 
794 349 848 860 
795 817 830 846 
796 805 351 813 
797 351 805 814 
798 811 529 849 
799 803 559 813 
800 347 345 814 
801 341 349 841 
802 830 825 846 
803 803 813 841 
804 826 825 827 
805 854 836 861 
806 527 575 821 
807 351 343 841 
808 345 351 814 
809 835 836 854 
810 618 812 852 
811 540 520 851 
812 540 815 855 
813 559 557 813 
814 824 825 826 
815 542 811 849 
816 834 833 938 
817 561 803 860 
818 587 539 819 
819 528 820 840 
820 525 527 821 
821 812 808 852 
822 347 814 815 
823 816 498 818 
824 521 538 804 
825 539 526 819 
826 815 540 851 
827 986 812 987 
828 560 562 808 
829 587 819 820 
830 821 575 822 
831 815 814 855 
832 491 495 835 
833 813 351 841 
834 809 812 986 
835 585 863 880 
836 488 491 835 
837 864 546 876 
838 562 564 852 
839 808 562 852 
840 523 512 859 
841 722 578 824 
842 564 567 852 
843 874 811 879 
844 820 819 840 
845 494 498 816 
846 835 495 836 
847 547 620 806 
848 344 346 837 
849 535 506 823 
850 827 825 830 
851 578 823 824 
852 331 333 842 
853 578 535 823 
854 518 515 858 
855 496 532 857 
856 352 344 837 
857 505 507 849 
858 857 548 866 
859 544 518 858 
860 524 516 840 
861 557 805 813 
862 529 811 874 
863 346 482 837 
864 722 824 826 
865 565 563 802 
866 641 862 866 
867 507 511 849 
868 562 563 564 
869 354 334 875 
870 865 588 870 
871 497 494 816 
872 566 565 800 
873 588 577 807 
874 542 582 811 
875 520 489 851 
876 862 641 981 
877 529 505 849 
878 547 545 620 
879 352 838 839 
880 548 641 866 
881 521 537 538 
882 567 568 569 
883 567 569 618 
884 573 530 832 
885 577 721 807 
886 482 834 837 
887 548 547 640 
888 333 843 844 
889 511 542 849 
890 555 541 855 
891 519 489 520 
892 640 547 806 
893 543 525 821 
894 560 561 562 
895 721 578 722 
896 577 578 721 
897 554 541 555 
898 517 521 528 
899 809 808 812 
900 527 534 575 
901 352 837 838 
902 528 521 804 
903 501 497 816 
904 569 570 571 
905 482 833 834 
906 819 524 840 
907 862 981 982 
908 530 520 531 
909 525 526 527 
910 558 557 559 
911 493 494 496 
912 531 553 832 
913 500 497 501 
914 810 809 985 
915 817 816 818 
916 530 531 832 
917 531 520 540 
918 507 506 509 
919 533 526 539 
920 347 815 850 
921 488 489 490 
922 522 516 524 
923 519 546 864 
924 482 348 483 
925 837 834 838 
926 344 345 346 
927 504 502 508 
928 780 584 883 
929 511 512 523 
930 341 338 349 
931 482 483 833 
932 553 541 554 
933 827 830 831 
934 332 334 335 
935 501 816 817 
936 572 560 808 
937 839 838 936 
938 509 506 535 
939 532 545 547 
940 519 520 530 
941 488 490 491 
942 523 859 863 
943 531 541 553 
944 825 508 846 
945 564 563 565 
946 505 504 506 
947 516 515 517 
948 503 502 504 
949 517 518 521 
950 512 513 514 
951 558 560 572 
952 348 347 850 
953 336 334 354 
954 342 341 343 
955 339 338 341 
956 542 581 582 
957 527 526 533 
958 335 334 336 
959 499 497 500 
960 491 493 495 
961 486 488 835 
962 496 494 497 
963 550 854 861 
964 487 484 850 
965 488 487 489 
966 556 557 558 
967 507 509 510 
968 486 484 487 
969 337 338 339 
970 985 809 986 
971 483 485 549 
972 577 535 578 
973 507 510 511 
974 583 539 586 
975 483 484 485 
976 331 332 333 
977 541 540 855 
978 496 497 499 
979 522 525 543 
980 586 539 587 
981 527 533 534 
982 335 336 337 
983 511 523 542 
984 525 524 526 
985 346 347 348 
986 483 348 484 
987 486 487 488 
988 344 343 345 
989 549 550 551 
990 329 331 353 
991 567 566 568 
992 346 348 482 
993 563 561 860 
994 346 345 347 
995 517 515 518 
996 513 510 847 
997 339 341 342 
998 490 489 519 
999 332 330 334 
1000 505 506 507 
1001 584 581 585 
1002 337 336 338 
1003 493 492 494 
1004 483 549 833 
1005 511 510 512 
1006 514 515 516 
1007 491 492 493 
1008 532 548 857 
1009 333 332 843 
1010 352 839 856 
1011 514 516 522 
1012 494 492 498 
1013 570 579 580 
1014 337 339 340 
1015 536 577 588 
1016 557 555 805 
1017 510 509 847 
1018 342 344 352 
1019 519 530 546 
1020 512 510 513 
1021 503 505 529 
1022 548 640 641 
1023 558 559 560 
1024 496 499 532 
1025 485 484 486 
1026 509 536 847 
1027 500 501 502 
1028 554 555 556 
1029 500 502 503 
1030 522 524 525 
1031 582 584 780 
1032 546 530 573 
1033 353 331 842 
1034 503 504 505 
1035 560 559 561 
1036 537 544 552 
1037 556 555 557 
1038 861 862 982 
1039 509 535 536 
1040 549 485 550 
1041 331 330 332 
1042 484 348 850 
1043 526 524 819 
1044 345 343 351 
1045 514 513 515 
1046 501 817 846 
1047 521 518 537 
1048 342 343 344 
1049 553 554 596 
1050 491 490 492 
1051 531 540 541 
1052 532 499 545 
1053 493 496 857 
1054 569 568 570 
1055 859 543 863 
1056 823 508 824 
1057 562 561 563 
1058 570 568 579 
1059 561 559 803 
1060 542 523 581 
1061 544 865 870 
1062 567 618 852 
1063 824 508 825 
1064 512 514 859 
1065 532 547 548 
1066 516 517 840 
1067 536 535 577 
1068 585 880 881 
1069 582 581 584 
1070 572 809 810 
1071 329 330 331 
1072 506 504 823 
1073 572 810 868 
1074 533 539 583 
1075 844 843 845 
1076 546 573 574 
1077 517 528 840 
1078 572 808 809 
1079 543 821 880 
1080 537 518 544 
1081 339 342 856 
1082 495 493 857 
1083 564 565 566 
1084 564 566 567 
1085 545 499 853 
1086 558 572 868 
1087 814 805 855 
1088 340 339 856 
1089 504 508 823 
1090 342 352 856 
1091 332 335 843 
1092 515 513 858 
1093 536 588 865 
1094 499 500 853 
1095 805 555 855 
1096 490 519 864 
1097 853 529 874 
1098 495 857 866 
1099 861 836 862 
1100 843 335 869 
1101 546 574 876 
1102 337 340 869 
1103 508 502 846 
1104 937 834 938 
1105 845 843 869 
1106 545 853 874 
1107 502 501 846 
1108 862 836 866 
1109 552 544 870 
1110 503 529 853 
1111 335 337 869 
1112 850 815 851 
1113 487 850 851 
1114 818 498 876 
1115 500 503 853 
1116 489 487 851 
1117 847 536 865 
1118 329 328 330 
1119 585 881 882 
1120 334 330 875 
1121 486 835 854 
1122 330 328 875 
1123 514 522 859 
1124 498 864 876 
1125 838 834 937 
1126 492 490 864 
1127 513 847 858 
1128 556 558 868 
1129 552 870 871 
1130 584 882 883 
1131 620 545 874 
1132 544 858 865 
1133 836 495 866 
1134 498 492 864 
1135 584 585 882 
1136 550 485 854 
1137 585 581 863 
1138 522 543 859 
1139 880 822 881 
1140 485 486 854 
1141 579 568 867 
1142 848 802 860 
1143 802 563 860 
1144 872 583 873 
1145 566 800 867 
1146 936 838 937 
1147 581 523 863 
1148 858 847 865 
1149 534 533 872 
1150 821 822 880 
1151 568 566 867 
1152 533 583 872 
1153 538 537 877 
1154 537 552 877 
1155 328 326 797 
1156 327 328 329 
1157 355 327 799 
1158 582 780 879 
1159 811 582 879 
1160 350 324 798 
1161 325 327 355 
1162 327 326 328 
1163 326 324 350 
1164 325 326 327 
1165 325 324 326 
1166 320 324 325 
1167 320 323 324 
1168 320 319 323 
1169 361 318 796 
1170 318 319 320 
1171 319 317 322 
1172 318 317 319 
1173 316 318 361 
1174 798 323 884 
1175 580 579 884 
1176 316 317 318 
1177 579 798 884 
1178 316 249 317 
1179 315 316 793 
1180 635 360 954 
1181 315 249 316 
1182 360 359 701 
1183 598 357 772 
1184 358 360 635 
1185 936 480 955 
1186 250 223 740 
1187 249 248 788 
1188 248 250 791 
1189 247 249 315 
1190 358 359 360 
1191 359 357 598 
1192 248 223 250 
1193 247 248 249 
1194 595 446 777 
1195 709 305 956 
1196 358 357 359 
1197 309 293 762 
1198 1028 712 1029 
1199 447 468 599 
1200 1084 270 1095 
1201 433 434 435 
1202 247 223 248 
1203 729 160 922 
1204 890 639 983 
1205 479 943 1039 
1206 186 770 776 
1207 425 426 427 
1208 589 614 679 
1209 57 58 204 
1210 321 357 358 
1211 425 427 441 
1212 367 278 935 
1213 140 141 142 
1214 333 844 894 
1215 712 713 714 
1216 460 408 891 
1217 46 4 150 
1218 16 47 148 
1219 71 72 156 
1220 21 22 155 
1221 1106 725 1112 
1222 756 366 1161 
1223 220 223 247 
1224 222 365 366 
1225 94 95 731 
1226 147 765 766 
1227 765 185 887 
1228 266 757 1137 
1229 842 333 894 
1230 147 766 767 
1231 633 954 1072 
1232 723 678 1092 
1233 654 168 738 
1234 459 609 962 
1235 766 765 887 
1236 943 638 957 
1237 467 460 478 
1238 311 277 912 
1239 423 424 425 
1240 23 773 779 
1241 435 437 438 
1242 292 294 305 
1243 423 421 424 
1244 406 404 919 
1245 289 287 312 
1246 256 208 1074 
1247 289 312 371 
1248 423 425 777 
1249 468 643 1065 
1250 678 371 1092 
1251 711 712 1028 
1252 794 795 892 
1253 794 790 795 
1254 359 598 913 
1255 422 459 930 
1256 143 111 761 
1257 24 157 773 
1258 553 596 914 
1259 356 196 370 
1260 321 356 357 
1261 637 101 1146 
1262 446 423 777 
1263 687 688 689 
1264 284 281 932 
1265 159 935 1145 
1266 612 481 658 
1267 955 698 997 
1268 422 446 459 
1269 394 377 660 
1270 288 290 291 
1271 478 460 922 
1272 139 140 886 
1273 739 192 1116 
1274 420 408 460 
1275 288 287 289 
1276 422 421 423 
1277 590 591 597 
1278 689 688 690 
1279 163 91 963 
1280 1034 657 1096 
1281 708 179 1069 
1282 81 9 197 
1283 14 134 198 
1284 425 441 777 
1285 15 173 733 
1286 552 871 929 
1287 140 142 886 
1288 153 119 726 
1289 162 125 736 
1290 474 473 475 
1291 431 430 432 
1292 429 428 430 
1293 426 424 451 
1294 224 218 978 
1295 425 424 426 
1296 22 23 779 
1297 288 289 290 
1298 869 340 931 
1299 422 423 446 
1300 477 446 595 
1301 95 715 731 
1302 456 443 600 
1303 75 6 191 
1304 2 18 192 
1305 427 426 428 
1306 299 298 300 
1307 745 753 1082 
1308 480 698 955 
1309 701 359 913 
1310 737 704 1060 
1311 291 290 292 
1312 832 553 914 
1313 793 370 1016 
1314 421 420 915 
1315 393 392 412 
1316 222 148 365 
1317 220 222 223 
1318 433 432 434 
1319 72 73 901 
1320 790 789 893 
1321 538 771 1032 
1322 35 36 1012 
1323 283 285 286 
1324 4 139 187 
1325 970 616 1157 
1326 907 949 965 
1327 286 287 288 
1328 220 247 730 
1329 891 406 919 
1330 20 21 902 
1331 700 644 1072 
1332 280 282 590 
1333 278 280 935 
1334 270 1084 1171 
1335 694 400 1089 
1336 114 639 1151 
1337 68 158 940 
1338 283 281 284 
1339 99 1052 1175 
1340 313 308 589 
1341 122 123 958 
1342 718 896 1053 
1343 279 277 311 
1344 442 396 917 
1345 286 285 287 
1346 459 477 609 
1347 283 284 285 
1348 661 591 662 
1349 597 591 661 
1350 420 460 467 
1351 409 421 422 
1352 132 13 1113 
1353 685 686 967 
1354 19 20 184 
1355 73 74 183 
1356 420 467 915 
1357 10 83 1114 
1358 404 396 442 
1359 409 420 421 
1360 459 446 477 
1361 643 202 1065 
1362 40 41 903 
1363 52 53 908 
1364 307 284 932 
1365 42 43 904 
1366 41 42 151 
1367 44 45 182 
1368 43 44 906 
1369 48 49 188 
1370 50 51 149 
1371 49 50 910 
1372 51 52 907 
1373 627 628 629 
1374 133 14 896 
1375 760 1099 1109 
1376 661 662 663 
1377 438 437 449 
1378 612 658 918 
1379 625 680 1122 
1380 124 162 989 
1381 25 26 968 
1382 362 655 995 
1383 304 302 308 
1384 973 868 1142 
1385 795 790 893 
1386 679 172 1141 
1387 424 421 915 
1388 306 307 310 
1389 304 313 314 
1390 296 298 299 
1391 1032 767 1172 
1392 285 284 306 
1393 9 82 895 
1394 63 177 1040 
1395 817 818 951 
1396 831 830 951 
1397 74 75 897 
1398 288 291 941 
1399 877 552 929 
1400 435 434 437 
1401 721 722 1006 
1402 931 340 997 
1403 954 1021 1072 
1404 789 791 952 
1405 308 302 724 
1406 451 424 915 
1407 921 286 941 
1408 187 139 886 
1409 273 778 1163 
1410 67 68 940 
1411 152 619 1043 
1412 254 362 1174 
1413 21 155 902 
1414 312 287 916 
1415 590 282 591 
1416 845 869 931 
1417 3 35 1124 
1418 161 39 653 
1419 662 921 941 
1420 749 750 751 
1421 18 19 898 
1422 470 464 471 
1423 409 408 420 
1424 478 958 989 
1425 276 278 367 
1426 179 89 1162 
1427 156 72 901 
1428 287 285 916 
1429 262 269 1153 
1430 283 286 921 
1431 269 271 642 
1432 321 196 356 
1433 671 670 961 
1434 686 773 967 
1435 432 430 454 
1436 313 589 594 
1437 250 742 791 
1438 842 894 933 
1439 151 904 905 
1440 910 149 911 
1441 311 912 948 
1442 405 407 411 
1443 244 215 969 
1444 407 408 409 
1445 64 65 1008 
1446 282 281 283 
1447 662 591 921 
1448 305 294 956 
1449 217 244 778 
1450 300 302 304 
1451 407 406 408 
1452 14 198 896 
1453 460 891 922 
1454 258 257 934 
1455 944 911 1088 
1456 673 676 1023 
1457 596 554 973 
1458 556 868 973 
1459 832 914 953 
1460 26 27 1118 
1461 377 378 379 
1462 146 637 638 
1463 463 462 464 
1464 437 434 458 
1465 197 9 895 
1466 304 308 313 
1467 641 980 981 
1468 923 458 939 
1469 285 306 916 
1470 885 164 923 
1471 613 254 1174 
1472 680 614 1122 
1473 907 908 949 
1474 282 283 921 
1475 155 22 779 
1476 208 209 210 
1477 614 724 1122 
1478 610 310 668 
1479 112 181 761 
1480 247 315 730 
1481 908 154 909 
1482 591 282 921 
1483 665 950 971 
1484 417 414 419 
1485 625 998 1009 
1486 818 876 994 
1487 698 931 997 
1488 306 310 610 
1489 856 839 997 
1490 355 799 1135 
1491 215 212 969 
1492 280 590 935 
1493 396 389 917 
1494 405 406 407 
1495 917 714 1046 
1496 41 151 903 
1497 907 52 908 
1498 280 281 282 
1499 151 42 904 
1500 904 43 906 
1501 44 182 906 
1502 50 149 910 
1503 188 49 910 
1504 149 51 907 
1505 381 382 383 
1506 787 256 1074 
1507 250 740 741 
1508 453 622 1127 
1509 246 224 978 
1510 665 663 950 
1511 358 635 1005 
1512 306 610 916 
1513 292 305 971 
1514 949 752 965 
1515 235 239 786 
1516 947 1035 1174 
1517 480 473 1087 
1518 286 288 941 
1519 950 291 971 
1520 910 911 944 
1521 667 671 1036 
1522 769 767 1032 
1523 961 469 1130 
1524 754 787 1007 
1525 232 973 1142 
1526 73 183 901 
1527 407 409 930 
1528 409 422 930 
1529 175 615 616 
1530 280 279 281 
1531 902 621 1156 
1532 150 4 193 
1533 16 148 220 
1534 405 404 406 
1535 360 701 1021 
1536 941 291 950 
1537 617 616 1037 
1538 894 844 1024 
1539 19 184 898 
1540 411 407 930 
1541 893 789 952 
1542 1035 613 1174 
1543 417 419 1055 
1544 156 901 942 
1545 830 817 951 
1546 428 705 1158 
1547 278 279 280 
1548 917 1045 1128 
1549 699 894 1024 
1550 184 20 902 
1551 844 845 1014 
1552 180 103 758 
1553 712 153 713 
1554 353 842 1031 
1555 92 93 1066 
1556 239 241 242 
1557 296 299 956 
1558 264 871 1105 
1559 573 832 953 
1560 528 804 1042 
1561 183 74 897 
1562 210 211 212 
1563 379 380 381 
1564 839 936 955 
1565 1010 656 1123 
1566 91 92 963 
1567 299 300 992 
1568 250 741 742 
1569 233 757 1038 
1570 713 726 727 
1571 911 149 965 
1572 434 432 939 
1573 663 662 950 
1574 198 734 1053 
1575 242 243 251 
1576 478 922 958 
1577 195 194 1005 
1578 626 654 1108 
1579 438 449 1013 
1580 804 1032 1172 
1581 475 481 612 
1582 906 959 966 
1583 70 71 1058 
1584 278 277 279 
1585 432 454 939 
1586 163 664 1162 
1587 719 718 1053 
1588 170 117 1131 
1589 720 667 1036 
1590 304 314 992 
1591 718 132 1113 
1592 370 793 1003 
1593 172 8 1141 
1594 616 615 946 
1595 662 941 950 
1596 254 255 268 
1597 913 353 1031 
1598 688 685 967 
1599 75 191 897 
1600 276 367 984 
1601 294 296 956 
1602 458 434 939 
1603 188 910 944 
1604 397 404 405 
1605 773 157 967 
1606 365 964 1015 
1607 920 602 1067 
1608 452 453 1127 
1609 90 163 1162 
1610 276 277 278 
1611 772 356 1003 
1612 220 148 222 
1613 829 240 1041 
1614 760 759 1099 
1615 593 613 1137 
1616 261 721 1006 
1617 69 70 1098 
1618 607 696 1160 
1619 719 1053 1102 
1620 160 122 958 
1621 276 275 277 
1622 778 244 1163 
1623 373 170 410 
1624 212 211 213 
1625 217 778 978 
1626 194 196 321 
1627 573 953 975 
1628 397 396 404 
1629 717 895 1114 
1630 583 586 1075 
1631 48 188 964 
1632 930 459 962 
1633 314 313 960 
1634 208 207 209 
1635 356 370 1003 
1636 759 144 1099 
1637 625 624 998 
1638 390 397 469 
1639 245 246 254 
1640 1002 654 1111 
1641 365 148 964 
1642 922 160 958 
1643 796 355 1083 
1644 964 188 1015 
1645 471 473 474 
1646 889 391 1034 
1647 458 732 1062 
1648 36 37 175 
1649 750 749 1082 
1650 36 175 1012 
1651 412 447 928 
1652 313 594 960 
1653 275 273 1163 
1654 274 275 276 
1655 981 694 982 
1656 191 6 988 
1657 713 153 726 
1658 157 25 968 
1659 588 807 1105 
1660 871 870 1105 
1661 730 315 1016 
1662 776 770 1099 
1663 905 904 966 
1664 47 48 964 
1665 274 273 275 
1666 595 691 1103 
1667 192 18 898 
1668 959 623 966 
1669 787 604 1007 
1670 400 394 660 
1671 383 384 385 
1672 390 389 396 
1673 622 1049 1070 
1674 1049 651 1070 
1675 741 740 756 
1676 791 742 952 
1677 453 440 1055 
1678 400 660 918 
1679 730 1016 1136 
1680 419 928 970 
1681 390 396 397 
1682 904 906 966 
1683 200 79 695 
1684 554 556 973 
1685 208 210 1074 
1686 474 475 888 
1687 574 573 975 
1688 35 1012 1124 
1689 167 991 1008 
1690 638 637 1081 
1691 927 203 1140 
1692 597 661 963 
1693 16 730 1136 
1694 442 917 1046 
1695 600 443 1013 
1696 388 386 389 
1697 641 640 980 
1698 217 215 244 
1699 377 375 378 
1700 185 775 1056 
1701 123 124 989 
1702 1016 370 1107 
1703 475 612 888 
1704 291 292 971 
1705 903 151 979 
1706 771 878 1109 
1707 897 998 1173 
1708 1016 142 1136 
1709 551 1148 1149 
1710 1148 938 1149 
1711 2 192 1033 
1712 81 197 1141 
1713 76 7 1120 
1714 7 77 1120 
1715 414 412 928 
1716 151 905 979 
1717 6 76 988 
1718 387 388 392 
1719 1 17 1121 
1720 138 1 1121 
1721 944 753 1015 
1722 218 217 978 
1723 906 182 959 
1724 991 669 1008 
1725 385 386 387 
1726 471 474 889 
1727 194 321 1005 
1728 470 471 889 
1729 890 645 1110 
1730 149 907 965 
1731 258 260 1025 
1732 971 305 999 
1733 411 930 962 
1734 622 976 1127 
1735 83 717 1114 
1736 624 368 1044 
1737 388 389 390 
1738 876 574 994 
1739 757 593 1137 
1740 447 450 468 
1741 239 235 241 
1742 371 312 991 
1743 148 47 964 
1744 231 974 996 
1745 645 872 873 
1746 463 464 470 
1747 340 856 997 
1748 655 619 1168 
1749 696 199 1160 
1750 173 696 1071 
1751 243 266 1035 
1752 200 695 1009 
1753 426 451 1150 
1754 895 717 1080 
1755 989 162 1017 
1756 381 380 382 
1757 757 266 1038 
1758 272 273 274 
1759 387 386 388 
1760 412 413 447 
1761 594 589 1129 
1762 369 625 1122 
1763 257 251 899 
1764 445 462 463 
1765 468 450 666 
1766 793 361 1003 
1767 264 1076 1115 
1768 1076 260 1115 
1769 54 55 925 
1770 212 213 969 
1771 210 209 211 
1772 596 974 1159 
1773 974 265 1159 
1774 772 1003 1083 
1775 451 915 1054 
1776 925 203 926 
1777 479 1039 1091 
1778 161 650 945 
1779 39 40 653 
1780 252 259 1100 
1781 321 358 1005 
1782 274 276 984 
1783 470 889 1034 
1784 981 980 1147 
1785 383 382 384 
1786 1037 202 1165 
1787 467 478 1017 
1788 300 304 992 
1789 430 428 1158 
1790 385 384 386 
1791 967 157 1050 
1792 477 595 1106 
1793 587 887 1056 
1794 926 755 1019 
1795 141 16 1136 
1796 379 378 380 
1797 675 673 1023 
1798 405 411 1130 
1799 211 209 267 
1800 272 255 273 
1801 447 413 450 
1802 242 241 243 
1803 443 438 1013 
1804 750 1082 1088 
1805 1082 753 1088 
1806 65 167 1008 
1807 705 428 1150 
1808 315 793 1016 
1809 747 748 1101 
1810 437 458 1062 
1811 253 243 1035 
1812 251 243 253 
1813 243 241 266 
1814 948 969 1123 
1815 977 1030 1086 
1816 1030 764 1086 
1817 13 133 1113 
1818 696 607 1071 
1819 82 10 1114 
1820 269 262 271 
1821 905 966 976 
1822 966 623 976 
1823 701 913 1031 
1824 268 255 272 
1825 272 274 1154 
1826 954 360 1021 
1827 748 745 749 
1828 440 417 1055 
1829 1005 635 1078 
1830 390 469 972 
1831 804 538 1032 
1832 943 957 1039 
1833 473 697 1087 
1834 688 967 1050 
1835 245 224 246 
1836 62 63 1040 
1837 254 246 255 
1838 738 363 1111 
1839 146 638 943 
1840 412 392 413 
1841 942 901 1044 
1842 17 2 1033 
1843 713 727 1046 
1844 744 756 1161 
1845 1084 760 1109 
1846 878 1084 1109 
1847 771 769 1032 
1848 664 665 1069 
1849 611 1028 1029 
1850 746 920 1022 
1851 748 1007 1101 
1852 744 745 748 
1853 384 382 416 
1854 380 378 611 
1855 1012 993 1124 
1856 1043 272 1154 
1857 592 470 1034 
1858 985 230 1133 
1859 411 961 1130 
1860 658 481 1148 
1861 621 647 1156 
1862 251 253 899 
1863 204 990 1064 
1864 810 1133 1142 
1865 1133 232 1142 
1866 1003 361 1083 
1867 782 784 1152 
1868 166 725 1106 
1869 900 253 947 
1870 820 528 1042 
1871 634 1078 1079 
1872 1090 184 1156 
1873 659 200 1009 
1874 608 739 1116 
1875 388 390 972 
1876 392 388 972 
1877 665 971 999 
1878 375 373 1027 
1879 188 944 1015 
1880 1125 602 1170 
1881 899 253 900 
1882 231 233 1047 
1883 704 705 1060 
1884 630 632 1067 
1885 912 275 1163 
1886 204 58 990 
1887 725 176 1112 
1888 911 965 1018 
1889 463 470 592 
1890 233 234 1047 
1891 574 975 1152 
1892 1083 355 1135 
1893 807 261 1076 
1894 53 54 154 
1895 1012 617 1165 
1896 1079 1078 1169 
1897 1080 594 1129 
1898 842 933 1031 
1899 887 185 1056 
1900 690 688 1050 
1901 1095 270 1153 
1902 753 944 1088 
1903 77 648 1120 
1904 235 233 1038 
1905 478 989 1017 
1906 623 959 1030 
1907 639 145 983 
1908 586 587 1056 
1909 365 1015 1063 
1910 98 171 1168 
1911 238 985 986 
1912 213 211 1002 
1913 754 751 755 
1914 714 713 1046 
1915 844 1014 1024 
1916 389 386 1045 
1917 965 752 1018 
1918 901 183 1044 
1919 413 392 972 
1920 915 467 1054 
1921 654 738 1111 
1922 55 56 203 
1923 366 365 1063 
1924 257 899 957 
1925 934 257 957 
1926 770 771 1109 
1927 419 970 1157 
1928 969 213 1123 
1929 755 751 1019 
1930 935 590 1145 
1931 451 1060 1150 
1932 467 1017 1054 
1933 368 942 1044 
1934 898 184 1090 
1935 716 760 1084 
1936 418 445 1004 
1937 175 616 617 
1938 778 273 1097 
1939 652 453 1055 
1940 175 617 1012 
1941 213 1002 1010 
1942 896 198 1053 
1943 931 698 1094 
1944 378 375 1027 
1945 71 156 1058 
1946 142 1016 1107 
1947 749 745 1082 
1948 266 241 1038 
1949 873 583 1075 
1950 166 1103 1118 
1951 481 938 1148 
1952 419 414 928 
1953 972 469 1073 
1954 634 195 1078 
1955 158 69 1098 
1956 413 972 1073 
1957 605 252 1100 
1958 93 159 1066 
1959 246 978 1097 
1960 469 397 1130 
1961 167 723 1092 
1962 1030 959 1164 
1963 268 272 1139 
1964 449 437 1062 
1965 230 996 1133 
1966 361 796 1083 
1967 209 207 1011 
1968 724 369 1122 
1969 734 735 1167 
1970 999 708 1069 
1971 774 314 1143 
1972 366 1063 1161 
1973 453 650 1049 
1974 27 166 1118 
1975 255 246 1097 
1976 993 1012 1165 
1977 373 410 1027 
1978 241 235 1038 
1979 752 949 1104 
1980 1010 1002 1111 
1981 211 267 1002 
1982 607 600 1071 
1983 182 763 1164 
1984 949 909 1104 
1985 615 945 946 
1986 599 468 1065 
1987 764 1030 1164 
1988 157 968 1050 
1989 749 751 754 
1990 919 442 1134 
1991 590 597 1145 
1992 195 1005 1078 
1993 763 764 1164 
1994 647 1090 1156 
1995 89 90 1162 
1996 145 115 1061 
1997 1015 753 1063 
1998 1055 419 1117 
1999 144 776 1099 
2000 445 463 1004 
2001 269 1095 1153 
2002 947 253 1035 
2003 870 588 1105 
2004 745 744 1161 
2005 619 655 1139 
2006 700 933 1077 
2007 784 994 1152 
2008 888 646 1144 
2009 714 917 1128 
2010 1042 804 1172 
2011 899 900 1039 
2012 228 238 1155 
2013 267 209 1011 
2014 1013 449 1167 
2015 611 378 1027 
2016 205 204 1064 
2017 1085 465 1086 
2018 576 645 890 
2019 1078 635 1169 
2020 416 382 1166 
2021 240 786 1041 
2022 197 895 1080 
2023 929 871 1126 
2024 748 749 1007 
2025 743 744 747 
2026 207 205 1048 
2027 1068 1101 1170 
2028 38 39 161 
2029 598 772 1135 
2030 371 991 1092 
2031 8 81 1141 
2032 767 766 1172 
2033 914 596 1159 
2034 920 747 1068 
2035 868 810 1142 
2036 945 652 946 
2037 1007 604 1101 
2038 886 142 1107 
2039 681 774 1143 
2040 650 652 945 
2041 991 167 1092 
2042 1046 727 1134 
2043 656 948 1123 
2044 635 954 1169 
2045 386 384 1045 
2046 978 778 1097 
2047 613 1035 1137 
2048 716 1084 1095 
2049 1044 183 1173 
2050 270 1126 1153 
2051 642 271 1081 
2052 270 929 1126 
2053 450 413 1073 
2054 100 146 1052 
2055 651 979 1070 
2056 609 477 1112 
2057 589 679 1129 
2058 463 592 1004 
2059 142 141 1136 
2060 363 1010 1111 
2061 449 1062 1102 
2062 133 896 1113 
2063 624 1044 1173 
2064 265 914 1159 
2065 474 888 1144 
2066 273 255 1097 
2067 665 999 1069 
2068 895 82 1114 
2069 161 945 1059 
2070 1126 263 1153 
2071 650 453 652 
2072 943 479 1052 
2073 384 416 1045 
2074 1089 658 1148 
2075 926 203 927 
2076 428 426 1150 
2077 954 633 1169 
2078 454 430 1158 
2079 398 694 1147 
2080 998 624 1173 
2081 698 1087 1094 
2082 1035 266 1137 
2083 602 1068 1170 
2084 653 40 903 
2085 397 405 1130 
2086 616 946 1157 
2087 603 787 1074 
2088 146 943 1052 
2089 929 270 1171 
2090 970 599 1037 
2091 957 899 1039 
2092 202 993 1165 
2093 192 898 1116 
2094 272 1043 1139 
2095 611 1029 1166 
2096 749 754 1007 
2097 645 534 872 
2098 238 986 987 
2099 655 268 1139 
2100 380 611 1166 
2101 1061 372 1119 
2102 983 145 1119 
2103 633 1079 1169 
2104 742 746 952 
2105 199 739 1160 
2106 442 1046 1134 
2107 698 480 1087 
2108 184 902 1156 
2109 1101 604 1170 
2110 314 960 1143 
2111 1011 207 1048 
2112 629 983 1119 
2113 1029 416 1166 
2114 152 1043 1154 
2115 410 170 1131 
2116 889 474 1144 
2117 274 984 1154 
2118 988 76 1120 
2119 1023 158 1098 
2120 602 920 1068 
2121 180 758 1093 
2122 183 897 1173 
2123 213 1010 1123 
2124 675 1023 1098 
2125 238 987 1051 
2126 959 182 1164 
2127 993 34 1124 
2128 744 741 756 
2129 772 1083 1135 
2130 746 893 952 
2131 735 1013 1167 
2132 742 743 746 
2133 982 694 1089 
2134 648 988 1120 
2135 945 615 1059 
2136 1033 649 1121 
2137 898 1090 1116 
2138 53 154 908 
2139 743 741 744 
2140 758 759 1093 
2141 1043 619 1139 
2142 601 1125 1170 
2143 994 574 1152 
2144 197 1080 1129 
2145 1087 697 1094 
2146 382 380 1166 
2147 38 161 1059 
2148 17 1033 1121 
2149 1039 900 1091 
2150 1117 419 1157 
2151 154 54 925 
2152 102 180 1146 
2153 1048 205 1064 
2154 362 947 1174 
2155 238 1051 1155 
2156 1068 747 1101 
2157 181 113 1151 
2158 267 1011 1108 
2159 145 1061 1119 
2160 766 1042 1172 
2161 597 1066 1145 
2162 1090 608 1116 
2163 1060 705 1150 
2164 1103 166 1106 
2165 201 1048 1064 
2166 449 1102 1167 
2167 401 924 1057 
2168 180 1093 1138 
2169 1084 878 1171 
2170 1102 734 1167 
2171 595 1103 1106 
2172 1045 416 1128 
2173 1093 642 1138 
2174 1066 159 1145 
2175 1051 631 1155 
2176 1110 181 1151 
2177 180 1138 1146 
2178 576 534 645 
2179 203 56 1140 
2180 946 652 1117 
2181 881 822 1026 
2182 652 1055 1117 
2183 822 575 1132 
2184 1081 637 1138 
2185 401 1057 1147 
2186 1138 637 1146 
2187 575 534 576 
2188 980 401 1147 
2189 642 1081 1138 
2190 1057 398 1147 
2191 694 981 1147 
2192 946 1117 1157 
2193 617 1037 1165 
2194 892 1000 1001 
2195 924 399 1057 
2196 892 795 1000 
2197 639 1110 1151 
2198 742 741 743 
2199 786 239 1041 
2200 1026 822 1132 
2201 575 576 1132 
2202 37 38 1059 
2203 56 57 1140 
2204 230 231 996 
2205 402 780 883 
2206 465 977 1086 
2207 551 550 982 
2208 550 861 982 
2209 569 571 618 
2210 571 570 892 
2211 570 580 892 
2212 618 571 987 
2213 636 634 1079 
2214 699 644 1077 
2215 751 750 1018 
2216 882 881 1026 
$EndElements
